<svg xmlns="http://www.w3.org/2000/svg" width="6144" height="1024">
  <path fill="#FFF" d="M952.467 743.285V286.692c-.395-15.366-6.084-26.683-17.088-33.898-11.005-7.216-24.944-10.773-41.885-10.691-12.3-.017-22.057 1.837-29.306 5.576-7.249 3.738-13.792 9.544-19.597 17.433L565.538 632.573 288.684 265.111c-5.904-8.183-12.824-14.087-20.778-17.711-7.953-3.624-18.284-5.379-31.027-5.313-17.236-.065-31.29 3.478-42.147 10.692-10.84 7.216-16.465 18.515-16.809 33.898V743.27h99.232V420.415l238.743 312.853c5.691 7.117 12.464 12.397 20.319 15.809 7.854 3.396 17.153 5.067 27.862 5.019 10.726.033 19.991-1.624 27.863-5.019 7.854-3.395 14.628-8.675 20.302-15.809l239.464-312.853V743.27h100.759v.015zM1428.164 603.103c70.288 1.082 118.83-9.2 145.692-30.815 26.846-21.68 39.67-61.268 38.392-118.765v-42.409c1.065-57.25-12.055-98.101-39.457-122.52-27.437-24.436-75.618-36.325-144.627-35.719h-392.651v490.408h109.319V603.102l283.332.001zm74.783-153.909c.395 25.386-5.066 42.753-16.514 52.134-11.48 9.364-31.356 13.809-59.728 13.301h-281.873V347.075h280.447c29.043-.476 49.346 4.265 60.957 14.202 11.627 9.954 17.188 27.978 16.728 54.103v33.815l-.017-.001zM2263.24 743.285l-287.646-166.027h86.277c66.664 1.082 115.861-8.577 147.61-28.994 31.767-20.435 47.559-58.48 47.296-114.141v-33.815c.525-57.727-14.579-97.035-45.213-117.929-30.667-20.876-80.078-30.716-148.201-29.503h-384.059v490.408h108.598V564.989l286.924 178.295 188.414.001zm-115.796-310.622c.623 25.846-5.805 42.819-19.204 50.855-13.431 8.085-37.473 11.742-72.092 10.988h-268.245V344.943h268.245c35.274-.754 59.497 2.87 72.649 10.873 13.151 7.97 19.367 24.714 18.662 50.231v26.615h-.015zM2430.269 743.285c71.715.787 121.356-11.823 148.923-37.734 27.584-25.846 40.753-69.354 39.473-130.523v-322.15H2509.33v317.166c.771 28.485-5.067 49-17.434 61.48s-35.784 18.613-70.271 18.302h-118.666v93.46h127.31v-.001zM3227.812 494.428c-.758-2.643-1.495-5.837-2.253-9.564-.737-3.727-1.413-8.191-2.089-13.414l-22.917-166.093h-13.292l-87.224 164.413-87.941-164.413h-17.756c-.287 2.602-.717 6.492-1.331 11.674-.595 5.161-1.372 11.244-2.294 18.248-.942 6.984-2.008 14.705-3.154 23.143-1.167 8.438-2.376 17.202-3.645 26.275a6648.515 6648.515 0 01-3.912 27.689 4309.403 4309.403 0 01-4.056 27.464c-1.352 8.95-2.662 17.49-3.912 25.641-1.27 8.151-2.396 15.483-3.42 22.017-.758 4.465-1.761 8.172-3.071 11.1-1.312 2.949-2.479 5.14-3.502 6.636v.554h27.976c-.287-1.495-.553-3.216-.86-5.161-.184-1.7-.369-3.728-.553-6.164-.184-2.438-.287-5.223-.287-8.397 0-2.519.246-6.41.696-11.674.471-5.263 1.085-11.346 1.884-18.248s1.7-14.316 2.725-22.303a37324.74 37324.74 0 003.071-23.962 3438.96 3438.96 0 018.54-61.235l83.067 155.464 9.646 1.106 82.473-155.197 17.736 133.939c.205 1.494.348 2.866.43 4.115a57.92 57.92 0 01.123 3.707c0 3.277-.205 6.063-.613 8.397-.409 2.335-.86 4.014-1.331 5.038v.553h35.267v-.553c-.654-1.106-1.352-2.54-2.048-4.261-.698-1.679-1.414-3.87-2.173-6.534zM3264.717 305.91c.553 1.946 1.085 4.362 1.535 7.271.472 2.888.901 6.492 1.271 10.834.389 4.321.635 9.462.84 15.38s.287 12.82.287 20.767v91.014c0 7.926-.082 14.848-.287 20.767s-.45 11.039-.84 15.319c-.369 4.279-.778 7.885-1.271 10.752-.45 2.908-.982 5.325-1.535 7.27v.554h33.423v-.554c-.553-1.945-1.106-4.361-1.597-7.27-.512-2.889-.942-6.473-1.271-10.752-.328-4.28-.614-9.38-.819-15.319-.266-5.919-.389-12.841-.389-20.767v-91.014c0-7.926.123-14.848.389-20.767.205-5.919.492-11.059.819-15.38s.737-7.946 1.271-10.834c.492-2.908 1.044-5.325 1.597-7.271v-.553h-33.423v.553zM3363.164 505.262c-.573-1.946-1.106-4.362-1.536-7.271-.451-2.888-.901-6.472-1.271-10.752-.41-4.279-.654-9.38-.859-15.318-.185-5.919-.267-12.842-.267-20.768v-95.621l143.974 153.088h4.916V360.141c0-7.926.061-14.848.287-20.768.164-5.919.43-11.059.818-15.38.369-4.32.799-7.945 1.271-10.834.45-2.907.963-5.324 1.536-7.27v-.532h-24.904v.573c.572 1.946 1.105 4.361 1.597 7.27.532 2.889 1.004 6.492 1.353 10.834.348 4.321.635 9.462.818 15.38.185 5.918.287 12.82.287 20.768v98.427l-143.994-153.23h-8.95v.572c.553 1.946 1.105 4.362 1.597 7.271.492 2.888.963 6.492 1.311 10.834.39 4.321.677 9.462.86 15.38.185 5.918.287 12.82.287 20.767v91.014c0 7.926-.102 14.848-.287 20.767-.185 5.919-.471 11.039-.86 15.319-.368 4.279-.818 7.885-1.311 10.752-.492 2.908-1.044 5.325-1.597 7.27v.554h24.903v-.614h.021zM3585.556 505.262a74.286 74.286 0 01-1.597-7.271c-.513-2.888-.942-6.472-1.25-10.752-.348-4.279-.613-9.38-.84-15.318-.266-5.919-.369-12.842-.369-20.768V360.14c0-7.926.103-14.848.369-20.768.226-5.919.492-11.059.84-15.38.308-4.32.718-7.945 1.25-10.834a74.097 74.097 0 011.597-7.27v-.532h-33.423v.573c.572 1.946 1.105 4.361 1.556 7.27.45 2.889.881 6.492 1.249 10.834.41 4.321.676 9.462.859 15.38.185 5.918.287 12.82.287 20.768v91.013c0 7.926-.102 14.848-.287 20.768-.185 5.919-.45 11.039-.859 15.318-.369 4.28-.778 7.885-1.249 10.752-.451 2.908-.983 5.325-1.556 7.271v.553h33.423v-.594zM3722.711 459.141c0-8.11-1.905-15.688-5.652-22.712-3.789-7.045-8.521-13.783-14.193-20.193-5.673-6.431-11.837-12.636-18.432-18.596-6.615-5.98-12.801-11.94-18.452-17.9-5.693-5.96-10.424-12.001-14.172-18.104-3.81-6.104-5.673-12.514-5.673-19.231 0-4.198.613-8.008 1.822-11.469s2.99-6.431 5.387-8.95c2.375-2.519 5.345-4.465 8.867-5.878 3.564-1.393 7.598-2.109 12.187-2.109 5.12 0 9.585.8 13.353 2.376 3.769 1.598 7.004 3.564 9.646 5.961 2.662 2.376 4.792 4.914 6.41 7.618 1.658 2.703 2.825 5.12 3.563 7.271h3.092l.963-26.153c-1.454-.655-3.399-1.495-5.733-2.519-2.314-1.024-5.019-2.048-8.151-3.072-3.112-1.024-6.636-1.905-10.567-2.642-3.892-.759-8.192-1.126-12.861-1.126-6.35 0-12.473 1.126-18.432 3.379a49.667 49.667 0 00-16.016 9.646c-4.689 4.198-8.479 9.257-11.346 15.176-2.847 5.919-4.239 12.555-4.239 19.928 0 6.983 1.065 13.394 3.195 19.21a72.494 72.494 0 008.458 16.363 106.522 106.522 0 0011.878 14.336c4.444 4.485 8.97 8.848 13.64 13.066 4.669 4.239 9.196 8.458 13.619 12.657s8.396 8.54 11.898 13.005 6.309 9.196 8.459 14.172c2.129 4.997 3.215 10.424 3.215 16.282 0 4.198-.737 8.069-2.171 11.592-1.454 3.543-3.523 6.595-6.205 9.155-2.725 2.56-5.98 4.566-9.748 6.021-3.769 1.435-8.05 2.171-12.78 2.171-5.243 0-10.035-.9-14.396-2.743-4.384-1.803-8.274-4.239-11.675-7.25-3.399-3.012-6.267-6.514-8.602-10.486a45.57 45.57 0 01-5.038-12.513h-3.482l-3.215 30.903c2.048 1.394 4.689 2.93 7.905 4.608 3.194 1.7 6.84 3.236 10.895 4.689 4.035 1.435 8.479 2.643 13.251 3.625 4.813.964 9.871 1.454 15.176 1.454 9.504 0 17.695-1.516 24.597-4.547 6.9-3.031 12.534-6.963 16.916-11.816 4.403-4.833 7.618-10.322 9.748-16.426 2.048-6.103 3.092-12.165 3.092-18.227l-.001-.002zM3836.457 487.24c-.349-4.279-.614-9.38-.841-15.318-.246-5.919-.348-12.842-.348-20.768V317.645c10.978 0 20.91.471 29.757 1.475 8.868.964 16.527 2.028 22.938 3.134 7.455 1.393 14.151 2.948 20.132 4.607l-4.076-22.63a193.91 193.91 0 01-5.018.287c-2.212.082-4.71.184-7.476.266-2.743.103-5.632.164-8.663.205s-5.897.082-8.602.144c-2.725.041-5.101.102-7.209.143-2.109.041-3.625.062-4.567.062h-79.811c-.942 0-2.438-.021-4.548-.062-2.089-.041-4.506-.082-7.209-.143-2.724-.041-5.55-.082-8.602-.144-3.052-.061-5.919-.102-8.663-.205-2.765-.082-5.243-.184-7.476-.266-2.231-.103-3.912-.185-5.037-.287l-4.056 22.63c5.898-1.679 12.534-3.215 20.009-4.607 6.41-1.126 14.091-2.172 22.918-3.134 8.867-.982 18.779-1.475 29.777-1.475v133.509c0 7.926-.102 14.849-.287 20.768-.185 5.919-.451 11.039-.84 15.318-.389 4.28-.778 7.885-1.249 10.752-.451 2.908-1.004 5.325-1.556 7.271v.553h33.423v-.553c-.553-1.946-1.106-4.362-1.618-7.271-.471-2.867-.881-6.472-1.208-10.752h.006zM3987.927 492.135c-9.216.941-19.313 1.393-30.311 1.393v-87.654c6.227 0 12.759.267 19.559.778 6.819.512 13.106 1.085 18.862 1.741a947.147 947.147 0 0119.722 2.376l4.342-20.275c-4.833.759-10.445 1.394-16.772 1.967-5.428.471-11.981.922-19.702 1.393-7.741.471-16.404.737-26.011.84v-76.329c3.441-.184 6.841-.369 10.199-.553 2.889-.184 5.878-.369 9.012-.492 3.112-.143 5.774-.205 8.027-.205 6.637 0 12.473.267 17.531.778 5.1.512 9.4 1.065 12.964 1.618 4.076.635 7.681 1.393 10.732 2.231l6.86-18.596c-2.437.471-7.045.84-13.844 1.126-6.82.287-15.012.471-24.596.614a5362.4 5362.4 0 01-31.662.369c-11.53.082-23.102.123-34.734.123v.572c.554 1.946 1.086 4.362 1.598 7.271.492 2.888.963 6.492 1.311 10.834.389 4.321.655 9.462.84 15.38.205 5.919.287 12.82.287 20.767v91.014c0 7.926-.082 14.848-.287 20.767-.184 5.919-.45 11.039-.84 15.319-.369 4.279-.818 7.885-1.311 10.752-.512 2.908-1.044 5.325-1.598 7.27v.554h60.375c.942 0 2.459.02 4.548.061 2.13.041 4.506.082 7.209.143 2.724.041 5.55.082 8.622.144 3.011.041 5.897.123 8.663.205 2.743.102 5.243.184 7.475.287 2.212.102 3.892.184 5.019.287l4.055-22.651c-6.595 1.761-13.926 3.318-21.955 4.608-6.902 1.166-14.95 2.253-24.188 3.174l-.001-.001zM3965.071 283.607c3.502-1.536 6.963-3.052 10.404-4.547a329.065 329.065 0 0110.199-4.198c3.358-1.31 6.574-2.52 9.667-3.646a845.837 845.837 0 0120.95-7.393l-12.86-21.811c-5.407 4.956-10.998 9.829-16.753 14.684-5.038 4.198-10.588 8.663-16.609 13.435a257.853 257.853 0 01-18.084 13.128l3.072 5.182a157.726 157.726 0 0110.014-4.834zM4184.474 505.837h40.448v-.554a31.094 31.094 0 01-5.468-2.867c-1.782-1.167-3.625-2.642-5.53-4.402-1.924-1.761-3.912-3.912-6.021-6.432-2.108-2.519-4.362-5.509-6.758-8.949l-49.069-68.915c5.406-2.417 10.301-5.428 14.664-9.012a56.665 56.665 0 0011.264-12.369c3.113-4.669 5.55-9.852 7.27-15.585 1.721-5.734 2.58-11.961 2.58-18.679 0-8.581-1.576-16.241-4.689-22.999-3.092-6.758-7.455-12.472-13.066-17.121-5.57-4.669-12.205-8.191-19.804-10.649-7.578-2.417-15.853-3.625-24.801-3.625-9.604 0-17.49.43-23.694 1.311-6.205.881-11.1 1.331-14.746 1.331-2.336 0-4.588-.02-6.779-.082s-4.178-.164-5.96-.348c-2.048-.185-3.974-.389-5.837-.573v.573c.531 1.946 1.085 4.362 1.597 7.27.492 2.889.942 6.492 1.312 10.834.369 4.343.654 9.462.84 15.381.185 5.918.287 12.819.287 20.767v91.013c0 7.926-.103 14.849-.287 20.768-.186 5.919-.451 11.039-.84 15.318-.39 4.28-.819 7.886-1.312 10.752-.512 2.908-1.065 5.325-1.597 7.271v.553h33.546v-.553c-.554-1.946-1.106-4.362-1.618-7.271-.492-2.888-.922-6.472-1.249-10.752-.349-4.279-.614-9.38-.84-15.318-.246-5.919-.349-12.842-.349-20.768v-31.457c5.019.84 9.953 1.271 14.808 1.271s9.544-.246 14.11-.696l49.48 69.755a71.482 71.482 0 015.387 8.724c1.576 2.971 2.478 5.305 2.724 7.087h-.003zm-41.841-104.306c-5.469 4.097-11.981 6.758-19.58 7.967-7.598 1.229-15.974.983-25.088-.695v-92.549c1.578-.573 3.584-1.065 6.002-1.536 2.047-.39 4.588-.718 7.537-1.044 2.99-.328 6.451-.472 10.485-.472 6.349 0 11.899 1.085 16.649 3.277 4.752 2.192 8.705 5.284 11.817 9.236s5.489 8.786 7.065 14.479c1.578 5.693 2.355 12.022 2.355 19.026 0 10.056-1.495 18.616-4.525 25.641-3.03 7.004-7.269 12.575-12.717 16.67zM4272.291 505.262c-.553-1.946-1.105-4.362-1.617-7.271-.513-2.888-.922-6.472-1.25-10.752-.348-4.279-.613-9.38-.84-15.318-.246-5.919-.348-12.842-.348-20.768V360.14c0-7.926.102-14.848.348-20.768.226-5.919.492-11.059.84-15.38.328-4.32.717-7.945 1.25-10.834.512-2.907 1.064-5.324 1.617-7.27v-.532h-33.422v.573c.553 1.946 1.084 4.361 1.535 7.27.451 2.889.881 6.492 1.271 10.834.39 4.343.655 9.462.84 15.38s.287 12.82.287 20.768v91.013c0 7.926-.103 14.848-.287 20.768-.185 5.919-.451 11.039-.84 15.318-.389 4.28-.799 7.885-1.271 10.752-.451 2.908-.982 5.325-1.535 7.271v.553h33.422v-.594zM4512.891 406.713c0-15.565-2.703-29.778-8.109-42.64-5.407-12.86-12.902-23.88-22.508-33.055-9.627-9.175-20.992-16.302-34.182-21.381-13.21-5.079-27.566-7.64-43.131-7.64-10.342 0-20.009 1.331-29 3.994s-17.203 6.369-24.596 11.101c-7.394 4.751-13.988 10.383-19.703 16.854-5.733 6.492-10.608 13.6-14.561 21.34a110.076 110.076 0 00-9.012 24.453 112.072 112.072 0 00-3.071 26.132c0 15.667 2.724 29.901 8.11 42.701 5.426 12.82 12.922 23.798 22.527 32.933 9.605 9.134 20.992 16.199 34.182 21.176 13.188 4.977 27.565 7.475 43.131 7.475 10.321 0 20.008-1.311 28.918-3.973 8.97-2.662 17.142-6.328 24.556-11.06 7.394-4.689 14.008-10.28 19.763-16.772a101.647 101.647 0 0014.623-21.176 106.97 106.97 0 009.012-24.33c2.048-8.561 3.052-17.285 3.051-26.132zm-34.959 43.131c-3.441 10.22-8.273 18.842-14.479 25.928s-13.559 12.493-22.16 16.22c-8.561 3.728-18.043 5.591-28.365 5.591-12.983 0-24.33-2.579-34.119-7.762-9.789-5.161-17.94-12.268-24.453-21.32-6.514-9.052-11.429-19.742-14.705-32.071-3.256-12.35-4.875-25.661-4.875-39.916 0-12.964 1.721-24.516 5.182-34.673 3.441-10.158 8.253-18.739 14.459-25.724 6.206-6.983 13.6-12.329 22.159-16.015 8.581-3.666 18.043-5.53 28.385-5.53 12.964 0 24.31 2.54 34.058 7.619 9.729 5.1 17.859 12.124 24.393 21.115 6.514 8.991 11.428 19.62 14.746 31.867 3.297 12.268 4.956 25.559 4.956 39.916-.002 12.963-1.743 24.534-5.182 34.755zM4731.842 319.058c-5.57-5.038-12.205-8.868-19.804-11.469-7.599-2.602-15.853-3.912-24.821-3.912-9.586 0-17.49.43-23.676 1.311-6.205.881-11.121 1.331-14.746 1.331-2.334 0-4.607-.02-6.778-.082a70.68 70.68 0 01-5.96-.348c-2.048-.185-3.994-.389-5.857-.573v.573c.554 1.946 1.086 4.362 1.619 7.27.492 2.889.941 6.492 1.289 10.834.41 4.321.655 9.462.86 15.38.185 5.92.267 12.82.267 20.768v91.013c0 7.926-.082 14.849-.267 20.768-.205 5.919-.451 11.039-.86 15.318-.369 4.28-.799 7.886-1.289 10.752-.533 2.908-1.065 5.325-1.619 7.271v.553h33.547v-.553a74.254 74.254 0 01-1.598-7.271c-.492-2.888-.922-6.472-1.249-10.752-.349-4.279-.614-9.38-.86-15.318-.225-5.919-.348-12.842-.348-20.768V427.95c11.816 1.762 23.143 1.659 33.977-.369 10.793-2.007 20.336-5.796 28.631-11.387 8.293-5.591 14.93-12.923 19.865-21.955 4.937-9.031 7.414-19.743 7.414-32.153 0-9.236-1.576-17.47-4.689-24.679-3.092-7.209-7.455-13.312-13.046-18.35l-.002.001zm-14.745 71.865c-3.03 7.557-7.271 13.536-12.718 17.961-5.468 4.424-11.98 7.311-19.579 8.663-7.599 1.352-15.974 1.188-25.108-.492V316.252c1.578-.573 3.584-1.065 6.021-1.536 2.048-.39 4.566-.718 7.516-1.044 2.99-.328 6.473-.472 10.506-.472 6.35 0 11.899 1.188 16.65 3.543 4.751 2.396 8.704 5.755 11.816 10.076 3.113 4.321 5.469 9.585 7.066 15.79 1.577 6.205 2.355 13.066 2.355 20.623.001 10.916-1.495 20.132-4.525 27.691zM4844.994 283.607c3.502-1.536 6.984-3.052 10.404-4.547 3.461-1.476 6.861-2.889 10.221-4.198s6.574-2.52 9.666-3.646a790.467 790.467 0 0120.951-7.393l-12.86-21.811c-5.407 4.956-10.998 9.829-16.772 14.684-5.019 4.198-10.568 8.663-16.59 13.435-6 4.751-12.021 9.114-18.104 13.128l3.072 5.182a156.953 156.953 0 0110.015-4.833l-.003-.001zM4778.66 324.014c.369 4.321.654 9.462.84 15.38.185 5.918.287 12.82.287 20.767v76.883c0 13.312 2.047 24.637 6.164 33.894 4.076 9.277 9.789 16.835 16.978 22.651 7.229 5.815 15.708 10.034 25.437 12.656 9.748 2.602 20.233 3.892 31.539 3.892 11.264 0 21.668-1.372 31.149-4.116 9.522-2.744 17.653-7.127 24.474-13.128 6.799-6.021 12.104-13.722 15.914-23.142 3.85-9.4 5.733-20.809 5.733-34.12v-75.489c0-7.926.103-14.848.369-20.767.226-5.92.492-11.06.84-15.381.308-4.32.737-7.945 1.249-10.834.512-2.907 1.064-5.324 1.598-7.27v-.532h-24.883v.573c.553 1.946 1.084 4.362 1.535 7.27.472 2.889.901 6.492 1.271 10.834.39 4.321.635 9.462.84 15.381.205 5.918.287 12.819.287 20.767V438.6c0 11.1-1.659 20.255-4.978 27.484-3.297 7.229-7.619 12.964-12.983 17.183-5.366 4.26-11.51 7.209-18.371 8.888-6.901 1.68-13.946 2.52-21.115 2.52s-14.213-.84-21.095-2.52c-6.922-1.679-13.045-4.628-18.451-8.888-5.428-4.239-9.77-9.974-13.066-17.183-3.297-7.229-4.977-16.385-4.977-27.484v-78.418c0-7.926.082-14.848.287-20.767.205-5.92.471-11.06.84-15.381.368-4.32.818-7.945 1.33-10.834.492-2.907 1.024-5.324 1.598-7.27v-.573h-33.566v.573c.572 1.946 1.105 4.362 1.597 7.27.511 2.868.94 6.493 1.329 10.814zM5031.711 508.068c25.824 0 45.199-4.915 58.162-14.746 12.943-9.83 19.416-24.576 19.416-44.257 0-6.984-1.271-13.332-3.851-19.087-2.56-5.734-6.185-10.752-10.896-15.032-4.689-4.28-10.321-7.844-16.834-10.69-6.533-2.848-13.764-4.874-21.688-6.083 5.427-1.495 10.362-3.502 14.909-6.083 4.525-2.561 8.376-5.734 11.592-9.503 3.195-3.789 5.714-8.213 7.475-13.271 1.762-5.1 2.662-10.834 2.662-17.285 0-7.639-1.453-14.459-4.402-20.479-2.949-6.021-7.004-11.08-12.186-15.177-5.162-4.096-11.306-7.25-18.371-9.421-7.066-2.171-14.828-3.276-23.205-3.276-9.031 0-16.444.328-22.158.963-5.734.655-10.281.982-13.641.982h-6.758c-2.191 0-4.178-.041-5.96-.143-2.048 0-3.994-.041-5.856-.143v.572c.553 1.946 1.084 4.362 1.597 7.271.492 2.888.963 6.492 1.331 10.834.369 4.32.635 9.462.818 15.38.205 5.919.308 12.82.308 20.767v91.014c0 7.926-.103 14.848-.308 20.767-.184 5.919-.451 11.039-.818 15.319-.389 4.279-.84 7.885-1.331 10.752-.513 2.908-1.044 5.325-1.597 7.27v.553h9.215c2.807 0 6.063.123 9.789.349 3.748.246 7.537.492 11.408.778 3.85.266 7.66.512 11.406.758 3.748.225 6.984.348 9.77.348l.002-.001zm-22.078-192.082c1.475-.553 3.297-1.023 5.447-1.393 1.885-.369 4.117-.696 6.779-.983 2.643-.266 5.734-.41 9.298-.41 5.53 0 10.403.922 14.685 2.785 4.279 1.863 7.926 4.547 10.834 8.049 2.929 3.502 5.16 7.722 6.636 12.657 1.476 4.937 2.212 10.445 2.212 16.507 0 7.25-1.023 13.619-3.052 19.067-2.048 5.468-4.915 9.994-8.603 13.64-3.687 3.646-8.131 6.369-13.353 8.172-5.222 1.804-10.978 2.725-17.347 2.725-2.314 0-4.506 0-6.555-.062-2.048-.041-4.383-.205-6.984-.471v-80.282l.003-.001zm.553 162.182c-.369-7.087-.532-16.098-.532-26.993v-42.354c2.335-.471 5.632-.922 9.933-1.393 4.26-.472 9.586-.696 15.893-.696 7.66 0 14.336 1.065 20.07 3.154 5.713 2.108 10.506 5.059 14.254 8.868 3.768 3.829 6.615 8.376 8.539 13.64 1.905 5.263 2.848 11.059 2.848 17.408 0 16.138-4.014 28.078-12.104 35.859-8.049 7.782-20.787 11.675-38.217 11.675-2.129 0-4.996-.185-8.539-.554a391.075 391.075 0 01-10.629-1.249c-.615-4.524-1.128-10.3-1.516-17.365zM5221.498 506.184c3.031.041 5.898.123 8.664.205 2.765.102 5.263.184 7.475.287 2.232.102 3.912.184 5.038.287l4.056-22.651c-6.615 1.761-13.947 3.318-21.976 4.608-6.881 1.208-14.931 2.294-24.166 3.215-9.216.941-19.333 1.393-30.31 1.393V360.162c0-7.926.102-14.848.348-20.767.225-5.919.492-11.059.84-15.38.328-4.321.736-7.946 1.249-10.834a68.335 68.335 0 011.618-7.271v-.553h-33.546v.573c.532 1.946 1.085 4.361 1.597 7.27.492 2.889.942 6.492 1.312 10.834.369 4.343.655 9.462.84 15.38s.287 12.82.287 20.768v91.013c0 7.926-.103 14.848-.287 20.768-.185 5.919-.451 11.039-.84 15.318-.389 4.28-.819 7.885-1.312 10.752-.512 2.908-1.064 5.325-1.597 7.271v.553h60.375c.922 0 2.437.021 4.547.062s4.506.081 7.209.143c2.683.02 5.55.061 8.581.123l-.002-.001zM5307.125 505.262c-.553-1.946-1.105-4.362-1.597-7.271-.513-2.888-.942-6.472-1.271-10.752-.328-4.279-.594-9.38-.818-15.318-.266-5.919-.389-12.842-.389-20.768V360.14c0-7.926.123-14.848.389-20.768.225-5.919.492-11.059.818-15.38.327-4.32.737-7.945 1.271-10.834.492-2.907 1.044-5.324 1.597-7.27v-.532h-33.422v.573c.553 1.946 1.084 4.361 1.556 7.27.451 2.889.881 6.492 1.249 10.834.389 4.321.654 9.462.859 15.38.185 5.919.287 12.82.287 20.768v91.013c0 7.926-.102 14.848-.287 20.768-.205 5.919-.471 11.039-.859 15.318-.369 4.28-.777 7.885-1.249 10.752-.472 2.908-1.004 5.325-1.556 7.271v.553h33.422v-.594zM5516.533 473.253l-1.535-.983c-3.543 4.014-7.455 7.598-11.817 10.691-4.321 3.133-8.95 5.774-13.845 7.967a75.193 75.193 0 01-15.299 4.977c-5.304 1.106-10.629 1.68-15.933 1.68-14.705 0-27.606-2.58-38.646-7.763-11.06-5.161-20.256-12.268-27.629-21.319-7.373-9.032-12.901-19.743-16.629-32.072-3.748-12.35-5.592-25.661-5.592-39.916 0-12.964 1.946-24.516 5.879-34.673 3.891-10.158 9.379-18.739 16.424-25.724 7.025-6.983 15.442-12.329 25.231-16.015 9.789-3.666 20.541-5.53 32.276-5.53 12.205 0 23.408 2.007 33.627 6.001 10.221 4.015 18.965 9.38 26.215 16.077l1.27-.553-9.503-25.866c-15.38-5.489-32.071-8.253-50.074-8.253-11.53 0-22.282 1.331-32.194 3.994-9.913 2.663-19.006 6.369-27.279 11.1-8.232 4.751-15.585 10.383-21.996 16.855-6.432 6.492-11.816 13.599-16.221 21.34-4.402 7.721-7.699 15.872-9.994 24.453a100.63 100.63 0 00-3.42 26.132c0 15.667 2.867 29.901 8.603 42.701 5.714 12.819 13.742 23.798 24.044 32.932 10.281 9.134 22.609 16.2 36.925 21.176 14.295 4.978 30.065 7.476 47.31 7.476 8.602 0 17.08-.717 25.518-2.15 8.438-1.454 16.139-3.522 23.143-6.226l11.141-28.508zM5733.375 364.073c-5.406-12.86-12.901-23.88-22.508-33.055-9.625-9.175-20.992-16.302-34.181-21.381-13.21-5.079-27.587-7.64-43.131-7.64-10.342 0-20.028 1.331-29 3.994-8.991 2.662-17.224 6.369-24.597 11.101a93.986 93.986 0 00-19.722 16.854c-5.714 6.492-10.588 13.6-14.541 21.34a108.99 108.99 0 00-9.011 24.453 111.966 111.966 0 00-3.072 26.132c0 15.667 2.725 29.901 8.109 42.701 5.428 12.82 12.943 23.798 22.528 32.933 9.604 9.134 20.992 16.199 34.181 21.176 13.189 4.976 27.566 7.475 43.11 7.475 10.342 0 20.009-1.311 28.938-3.973 8.97-2.662 17.142-6.328 24.556-11.06 7.394-4.689 14.008-10.28 19.763-16.772a101.647 101.647 0 0014.623-21.176 106.97 106.97 0 009.012-24.33c2.068-8.581 3.072-17.285 3.072-26.153.002-15.544-2.701-29.757-8.129-42.619zm-26.849 85.771c-3.42 10.22-8.253 18.842-14.459 25.928s-13.558 12.493-22.14 16.22c-8.602 3.728-18.063 5.591-28.405 5.591-12.964 0-24.33-2.579-34.099-7.762-9.789-5.161-17.94-12.268-24.453-21.32-6.514-9.052-11.429-19.742-14.705-32.071-3.256-12.35-4.875-25.661-4.875-39.916 0-12.964 1.721-24.516 5.162-34.673 3.461-10.158 8.273-18.739 14.479-25.724 6.205-6.983 13.6-12.329 22.159-16.015 8.562-3.666 18.043-5.53 28.385-5.53 12.964 0 24.31 2.54 34.058 7.619 9.709 5.1 17.859 12.124 24.393 21.115 6.492 8.991 11.407 19.62 14.746 31.867 3.297 12.268 4.956 25.559 4.956 39.916 0 12.963-1.72 24.534-5.202 34.755zM3057.091 594.884c-5.98-4.997-12.984-8.562-20.931-10.752-7.946-2.15-16.303-3.277-25.108-3.277-3.277 0-6.779.082-10.506.205-3.748.123-7.332.246-10.793.369-3.441.123-6.533.246-9.236.369s-4.628.205-5.774.205c-.677 0-1.557-.041-2.643-.041a76.356 76.356 0 01-3.174-.164c-1.208-.041-2.52-.123-3.912-.164v.369c.369 1.29.695 2.888 1.044 4.792.348 1.966.635 4.361.86 7.168.225 2.806.43 6.205.531 10.117.123 3.87.185 8.396.185 13.599v59.208c0 5.161-.062 9.687-.185 13.517-.123 3.871-.307 7.168-.531 9.953-.226 2.785-.532 5.12-.86 7.004-.349 1.925-.677 3.482-1.044 4.751v.369c1.699 0 4.076.082 7.147.205 3.052.164 6.328.328 9.789.512 3.461.205 6.902.369 10.322.513 3.44.164 6.369.205 8.786.205 6.799 0 13.373-.513 19.742-1.639 6.369-1.085 12.371-2.806 17.981-5.202 5.612-2.313 10.731-5.365 15.38-9.031 4.628-3.687 8.622-8.09 11.96-13.23 3.338-5.12 5.938-11.08 7.782-17.838 1.843-6.717 2.785-14.275 2.785-22.712 0-11.756-1.762-21.688-5.284-29.757-3.543-8.151-8.315-14.664-14.316-19.62l.003-.003zm-1.27 73.912c-1.576 6.163-3.748 11.447-6.492 15.79-2.743 4.342-5.979 7.926-9.646 10.67a47.97 47.97 0 01-11.735 6.513 59.16 59.16 0 01-12.923 3.236c-4.444.553-8.806.84-13.046.84-1.023 0-2.294-.041-3.83-.082a2277.05 2277.05 0 00-4.648-.246 71.701 71.701 0 01-4.507-.369c-1.434-.164-2.56-.287-3.42-.41-.246-3.727-.45-8.355-.635-13.926a890.642 890.642 0 01-.41-17.49c-.102-6.083-.184-12.001-.225-17.756-.062-5.755-.082-10.649-.082-14.725 0-1.966 0-4.157.041-6.677.041-2.519.061-5.16.082-7.926.041-2.765.061-5.55.082-8.438.02-2.848.061-5.632.143-8.356.123-6.41.246-12.964.369-19.763 1.147-.041 2.621-.164 4.403-.328 1.781-.123 3.707-.246 5.733-.369l6.145-.246a92.892 92.892 0 015.55-.164c8.314 0 15.667 1.29 22.077 3.871 6.409 2.561 11.775 6.369 16.118 11.325 4.32 4.956 7.639 11.08 9.851 18.33 2.253 7.27 3.379 15.524 3.379 24.842 0 8.458-.799 15.688-2.376 21.853l.002.001zM3207.864 598.631c-6.226-5.96-13.66-10.609-22.221-13.927-8.581-3.276-17.939-4.956-28.078-4.956-6.738 0-13.024.882-18.883 2.602s-11.203 4.116-15.995 7.25c-4.813 3.072-9.093 6.758-12.841 10.957s-6.881 8.847-9.462 13.885a69.52 69.52 0 00-5.857 15.913c-1.331 5.591-2.028 11.244-2.028 16.998 0 10.199 1.782 19.476 5.284 27.791 3.523 8.356 8.397 15.524 14.664 21.443 6.246 5.919 13.64 10.567 22.241 13.804 8.581 3.236 17.939 4.833 28.078 4.833 6.717 0 13.005-.84 18.82-2.602 5.838-1.72 11.162-4.115 15.975-7.168a62.702 62.702 0 0012.882-10.916 68.603 68.603 0 009.503-13.804c2.581-4.957 4.526-10.24 5.878-15.831a73.845 73.845 0 002.007-16.998c0-10.117-1.761-19.395-5.283-27.75-3.524-8.354-8.418-15.523-14.684-21.524zm-2.805 77.374c-2.232 6.636-5.386 12.247-9.4 16.876-4.034 4.607-8.867 8.109-14.438 10.567-5.571 2.396-11.735 3.604-18.452 3.604-8.438 0-15.831-1.68-22.2-4.997-6.39-3.4-11.674-8.008-15.912-13.885-4.261-5.878-7.435-12.842-9.564-20.91-2.13-8.008-3.174-16.671-3.174-25.97 0-8.438 1.126-15.953 3.358-22.568 2.233-6.615 5.386-12.206 9.421-16.753 4.014-4.526 8.848-8.049 14.418-10.404 5.571-2.396 11.715-3.604 18.452-3.604 8.438 0 15.79 1.638 22.159 4.956 6.349 3.317 11.633 7.885 15.852 13.722 4.28 5.878 7.455 12.8 9.626 20.767 2.15 8.008 3.236 16.65 3.236 26.011 0 8.376-1.147 15.953-3.379 22.589l-.003-.001zM3343.094 703.529c-6.021.594-12.575.922-19.743.922v-57.078c4.055 0 8.294.164 12.739.513 4.424.369 8.499.717 12.288 1.167 4.383.471 8.643.963 12.819 1.516l2.826-13.21c-3.154.471-6.779.922-10.916 1.29-3.502.287-7.781.594-12.82.922a337.09 337.09 0 01-16.916.512v-49.684c2.232-.123 4.444-.246 6.615-.369 1.885-.123 3.851-.205 5.878-.328 2.028-.082 3.789-.123 5.243-.123 4.321 0 8.11.164 11.428.472 3.318.368 6.124.676 8.397 1.044 2.683.43 5.018.922 7.045 1.475l4.424-12.083c-1.556.287-4.567.512-8.991.717-4.424.164-9.769.287-16.015.41-6.246.082-13.106.164-20.603.205-7.496.082-15.013.123-22.61.123v.369c.348 1.29.696 2.847 1.044 4.71s.613 4.239.859 7.045c.246 2.847.431 6.164.554 10.035.123 3.85.164 8.314.164 13.517v59.208c0 5.161-.041 9.688-.164 13.518-.144 3.871-.328 7.168-.554 9.953-.225 2.784-.512 5.119-.859 7.004-.348 1.925-.696 3.481-1.044 4.751v.368h39.301c.594 0 1.597 0 2.97.041s2.949.082 4.69.082c1.761.041 3.645.082 5.591.082 1.966.082 3.85.082 5.652.164 1.781.082 3.399.123 4.854.164 1.435.082 2.54.164 3.256.205l2.643-14.725a151.321 151.321 0 01-14.275 2.99c-4.506.817-9.769 1.493-15.77 2.106zM3445.002 654.111c-3.707-4.198-7.7-8.191-12.022-12.083a242.792 242.792 0 01-12.001-11.674c-3.727-3.871-6.779-7.844-9.236-11.796s-3.686-8.11-3.686-12.513c0-2.725.389-5.202 1.188-7.435.799-2.231 1.967-4.198 3.502-5.796 1.536-1.679 3.482-2.929 5.775-3.85 2.313-.923 4.936-1.353 7.926-1.353 3.338 0 6.227.512 8.704 1.517 2.437 1.044 4.526 2.313 6.267 3.87 1.742 1.558 3.134 3.195 4.179 4.956 1.064 1.762 1.843 3.359 2.313 4.751h2.028l.614-17.039c-.963-.43-2.191-.963-3.728-1.638-1.495-.676-3.276-1.311-5.325-2.007-2.047-.696-4.342-1.249-6.86-1.72-2.58-.472-5.345-.718-8.397-.718a34.47 34.47 0 00-12.001 2.15c-3.871 1.475-7.352 3.564-10.403 6.287-3.072 2.724-5.551 6.042-7.394 9.871-1.843 3.85-2.765 8.15-2.765 12.964 0 4.567.695 8.724 2.108 12.513 1.372 3.81 3.236 7.312 5.489 10.65a64.33 64.33 0 007.762 9.318c2.889 2.929 5.816 5.755 8.868 8.52s6.001 5.53 8.868 8.233c2.908 2.724 5.488 5.55 7.74 8.479 2.273 2.888 4.116 5.96 5.51 9.196 1.393 3.235 2.108 6.799 2.108 10.608 0 2.725-.45 5.243-1.393 7.558-.942 2.313-2.294 4.32-4.035 5.96-1.782 1.679-3.871 2.97-6.349 3.912-2.459.922-5.243 1.393-8.336 1.393-3.379 0-6.513-.553-9.358-1.761s-5.386-2.765-7.598-4.71a29.865 29.865 0 01-5.571-6.84c-1.536-2.602-2.621-5.284-3.277-8.151h-2.294l-2.089 20.111c1.352.922 3.052 1.925 5.161 2.99 2.108 1.064 4.444 2.13 7.106 3.03 2.621.963 5.51 1.761 8.622 2.396 3.134.594 6.41.922 9.893.922 6.185 0 11.51-.963 15.995-2.929 4.506-2.008 8.15-4.567 10.998-7.681 2.867-3.194 4.977-6.758 6.349-10.711 1.353-3.994 2.068-7.926 2.068-11.878 0-5.284-1.249-10.199-3.707-14.807A75.47 75.47 0 003445 654.11l.002.001zM3575.95 581.243c-.717.041-1.843.082-3.297.164-1.435.082-3.052.123-4.854.205-1.802.041-3.686.082-5.632.123s-3.83.082-5.591.082c-1.761.041-3.318.082-4.689.123-1.353 0-2.355.041-2.949.041h-51.979c-.613 0-1.576-.041-2.949-.041a753.252 753.252 0 00-4.689-.123c-1.782 0-3.645-.041-5.591-.082-2.007-.041-3.871-.082-5.632-.123-1.803-.082-3.42-.123-4.875-.205-1.453-.082-2.56-.123-3.276-.164l-2.643 14.726c3.851-1.085 8.151-2.089 13.025-2.99 4.178-.717 9.155-1.393 14.93-2.048s12.228-.963 19.374-.963v86.876c0 5.161-.082 9.687-.184 13.517-.123 3.871-.308 7.168-.554 9.953-.246 2.806-.491 5.12-.799 7.004-.328 1.925-.635 3.482-1.024 4.751v.369h21.771v-.369c-.389-1.29-.696-2.847-1.044-4.751-.348-1.884-.614-4.198-.84-7.004a240.943 240.943 0 01-.512-9.953c-.164-3.85-.246-8.355-.246-13.517v-86.876c7.168 0 13.618.328 19.373.963 5.756.635 10.732 1.311 14.931 2.048 4.833.922 9.216 1.925 13.106 2.99l-2.661-14.726zM3697.623 704.635c-1.127-1.966-2.273-4.157-3.523-6.636a118.443 118.443 0 01-3.584-7.599l-49.418-111.206h-7.27l-52.164 115.671c-1.945 4.444-3.727 8.11-5.345 11.039-1.659 2.97-3.011 4.997-4.075 6.164v.369h18.533v-.369c-.143-.205-.266-.553-.369-1.044-.123-.512-.205-1.208-.205-1.966 0-2.765.513-5.448 1.536-8.11 1.065-2.642 2.028-5.12 2.929-7.352l10.466-24.044c3.604-.123 7.598-.164 12.083-.164h32.174c5.632 0 10.158.041 13.537.164l11.018 24.76c1.476 3.4 2.438 6.246 2.971 8.521.533 2.273.758 4.361.758 6.245 0 .472-.02 1.044-.061 1.639a7.9 7.9 0 01-.287 1.352v.369h24.903v-.369c-.307-.369-.86-1.208-1.7-2.56-.881-1.311-1.823-2.949-2.907-4.874zm-47.35-43.315c-3.256.041-6.676.082-10.24.123-3.543.041-7.168.041-10.854.082-3.728.041-7.312.041-10.834.041h-9.811l25.108-58.122 25.58 57.754c-2.702.082-5.673.123-8.949.122zM3805.49 594.884c-5.979-4.997-12.964-8.562-20.91-10.752-7.945-2.15-16.322-3.277-25.107-3.277-3.256 0-6.779.082-10.527.205s-7.311.246-10.752.369c-3.481.123-6.533.246-9.257.369-2.703.123-4.628.205-5.774.205-.636 0-1.536-.041-2.643-.041a75.367 75.367 0 01-3.154-.164c-1.229-.041-2.54-.123-3.932-.164v.369c.389 1.29.717 2.888 1.064 4.792.349 1.966.614 4.361.86 7.168.246 2.806.431 6.205.554 10.117.123 3.87.164 8.396.164 13.599v59.208c0 5.161-.041 9.687-.164 13.517-.144 3.871-.328 7.168-.554 9.953-.225 2.785-.512 5.12-.86 7.004-.348 1.925-.676 3.482-1.064 4.751v.369c1.7 0 4.096.082 7.168.205 3.052.164 6.328.328 9.789.512 3.461.185 6.902.369 10.342.513 3.42.164 6.35.205 8.766.205 6.799 0 13.394-.513 19.763-1.639 6.368-1.085 12.37-2.806 17.961-5.202 5.612-2.313 10.711-5.365 15.38-9.031 4.648-3.687 8.643-8.09 11.96-13.23 3.358-5.12 5.938-11.08 7.782-17.838 1.863-6.717 2.784-14.275 2.784-22.712 0-11.756-1.761-21.688-5.284-29.757-3.522-8.069-8.334-14.664-14.355-19.62v-.003zm-1.249 73.912c-1.556 6.163-3.748 11.447-6.491 15.79-2.744 4.342-5.961 7.926-9.646 10.67-3.707 2.765-7.578 4.914-11.756 6.513a58.312 58.312 0 01-12.924 3.236c-4.443.553-8.806.84-13.045.84-1.024 0-2.314-.041-3.83-.082-1.517-.082-3.053-.164-4.649-.246s-3.072-.205-4.506-.369c-1.435-.164-2.58-.287-3.4-.41-.287-3.727-.471-8.355-.655-13.926a1395.63 1395.63 0 01-.43-17.49c-.061-6.083-.164-12.001-.225-17.756-.062-5.755-.103-10.649-.103-14.725 0-1.966.021-4.157.062-6.677.02-2.519.061-5.16.102-7.926.021-2.765.041-5.55.103-8.438.02-2.848.061-5.632.123-8.356.123-6.41.246-12.964.368-19.763 1.168-.041 2.643-.164 4.425-.328 1.802-.123 3.707-.246 5.733-.369 2.028-.082 4.055-.164 6.145-.246a92.426 92.426 0 015.55-.164c8.315 0 15.667 1.29 22.057 3.871 6.41 2.561 11.757 6.369 16.118 11.325 4.321 4.956 7.619 11.08 9.871 18.33 2.232 7.27 3.338 15.524 3.338 24.842.02 8.458-.758 15.688-2.335 21.853v.001zM3956.306 598.631c-6.268-5.96-13.66-10.609-22.263-13.927-8.58-3.276-17.939-4.956-28.037-4.956-6.758 0-13.045.882-18.902 2.602-5.837 1.72-11.203 4.116-16.016 7.25-4.813 3.072-9.072 6.758-12.819 10.957s-6.902 8.847-9.462 13.885c-2.602 4.997-4.567 10.363-5.878 15.913a73.076 73.076 0 00-2.007 16.998c0 10.199 1.761 19.476 5.283 27.791 3.523 8.356 8.397 15.524 14.644 21.443 6.267 5.919 13.659 10.567 22.262 13.804s17.94 4.833 28.058 4.833c6.738 0 13.025-.84 18.843-2.602 5.815-1.72 11.141-4.115 15.974-7.168a61.494 61.494 0 0012.861-10.916c3.768-4.238 6.963-8.847 9.523-13.804a67.504 67.504 0 005.856-15.831c1.353-5.55 2.007-11.244 2.007-16.998 0-10.117-1.74-19.395-5.263-27.75-3.543-8.355-8.417-15.523-14.664-21.524zm-2.806 77.374c-2.254 6.636-5.407 12.247-9.441 16.876-4.035 4.607-8.847 8.109-14.418 10.567-5.571 2.396-11.735 3.604-18.473 3.604-8.417 0-15.831-1.68-22.2-4.997-6.369-3.4-11.653-8.008-15.913-13.885-4.239-5.878-7.434-12.842-9.564-20.91-2.108-8.008-3.174-16.671-3.174-25.97 0-8.438 1.126-15.953 3.359-22.568 2.232-6.615 5.386-12.206 9.44-16.753 4.015-4.526 8.827-8.049 14.397-10.404 5.591-2.396 11.734-3.604 18.492-3.604 8.397 0 15.791 1.638 22.118 4.956 6.369 3.317 11.634 7.885 15.893 13.722 4.239 5.878 7.455 12.8 9.585 20.767 2.149 8.008 3.236 16.65 3.236 26.011.001 8.376-1.126 15.953-3.337 22.588zM4144.64 594.884c-6.001-4.997-12.983-8.562-20.931-10.752-7.926-2.15-16.324-3.277-25.108-3.277-3.256 0-6.779.082-10.527.205-3.727.123-7.291.246-10.752.369-3.481.123-6.532.246-9.235.369s-4.649.205-5.797.205c-.635 0-1.516-.041-2.621-.041a76.536 76.536 0 01-3.174-.164c-1.208-.041-2.519-.123-3.912-.164v.369c.369 1.29.717 2.888 1.044 4.792.349 1.966.614 4.361.882 7.168.225 2.806.409 6.205.531 10.117.123 3.87.164 8.396.164 13.599v59.208c0 5.161-.041 9.687-.164 13.517a279.339 279.339 0 01-.531 9.953c-.267 2.807-.532 5.12-.882 7.004-.327 1.925-.676 3.482-1.044 4.751v.369c1.7 0 4.055.082 7.148.205 3.072.164 6.328.328 9.789.512 3.461.185 6.902.369 10.342.513 3.42.164 6.369.205 8.765.205 6.8 0 13.393-.513 19.762-1.639 6.369-1.085 12.371-2.806 17.961-5.202 5.612-2.313 10.732-5.365 15.381-9.031 4.668-3.687 8.621-8.09 11.98-13.23 3.318-5.12 5.919-11.08 7.782-17.838 1.843-6.717 2.765-14.275 2.765-22.712 0-11.756-1.74-21.688-5.263-29.757-3.604-8.151-8.335-14.664-14.356-19.62l.001-.003zm-1.271 73.912c-1.576 6.163-3.748 11.447-6.492 15.79-2.785 4.361-6 7.926-9.666 10.67a48.358 48.358 0 01-11.735 6.513 58.61 58.61 0 01-12.923 3.236c-4.484.553-8.827.84-13.066.84-1.023 0-2.313-.041-3.83-.082-1.494-.082-3.052-.164-4.627-.246-1.598-.082-3.072-.205-4.526-.369s-2.56-.287-3.399-.41c-.267-3.727-.451-8.355-.655-13.926a890.642 890.642 0 01-.41-17.49c-.103-6.083-.185-12.001-.246-17.756s-.082-10.649-.082-14.725c0-1.966.021-4.157.041-6.677.021-2.519.082-5.16.103-7.926.02-2.765.061-5.55.082-8.438.02-2.848.102-5.632.143-8.356.123-6.41.266-12.964.369-19.763 1.167-.041 2.621-.164 4.424-.328 1.782-.123 3.707-.246 5.734-.369 2.048-.082 4.055-.164 6.144-.246a92.45 92.45 0 015.55-.164c8.315 0 15.668 1.29 22.056 3.871 6.41 2.561 11.776 6.369 16.119 11.325 4.342 4.956 7.619 11.08 9.871 18.33 2.231 7.27 3.358 15.524 3.358 24.842.039 8.458-.739 15.689-2.337 21.854zM4295.434 598.631c-6.287-5.96-13.682-10.609-22.282-13.927-8.581-3.276-17.92-4.956-28.037-4.956-6.758 0-13.046.882-18.903 2.602-5.856 1.72-11.182 4.116-16.015 7.25a61.624 61.624 0 00-12.841 10.957c-3.727 4.198-6.881 8.847-9.462 13.885a69.515 69.515 0 00-5.837 15.913 71.965 71.965 0 00-2.007 16.998c0 10.199 1.741 19.476 5.263 27.791 3.523 8.356 8.397 15.524 14.644 21.443 6.267 5.919 13.681 10.567 22.263 13.804 8.602 3.236 17.939 4.833 28.058 4.833 6.737 0 13.024-.84 18.842-2.602 5.837-1.72 11.142-4.115 15.974-7.168a61.494 61.494 0 0012.861-10.916 66.287 66.287 0 009.523-13.804 68.501 68.501 0 005.877-15.831 72.764 72.764 0 002.008-16.998c0-10.117-1.783-19.395-5.285-27.75-3.524-8.355-8.398-15.523-14.644-21.524zm-2.827 77.374c-2.232 6.636-5.387 12.247-9.421 16.876-4.015 4.607-8.827 8.109-14.418 10.567-5.571 2.396-11.735 3.604-18.474 3.604-8.416 0-15.811-1.68-22.199-4.997-6.369-3.4-11.653-8.008-15.914-13.885-4.238-5.878-7.414-12.842-9.563-20.91-2.13-8.008-3.153-16.671-3.153-25.97 0-8.438 1.125-15.953 3.338-22.568 2.252-6.595 5.386-12.206 9.44-16.753 4.035-4.526 8.847-8.049 14.418-10.404 5.571-2.396 11.715-3.604 18.474-3.604 8.416 0 15.789 1.638 22.139 4.956 6.35 3.317 11.611 7.885 15.872 13.722 4.239 5.878 7.435 12.8 9.604 20.767 2.131 8.008 3.215 16.65 3.215 26.011 0 8.376-1.106 15.953-3.358 22.588zM4486.39 707.318c-1.249-1.126-2.54-2.519-3.912-4.157a121.471 121.471 0 01-4.424-5.837l-31.929-44.831a41.624 41.624 0 009.545-5.878 34.904 34.904 0 007.332-8.09c2.047-2.99 3.604-6.41 4.73-10.117 1.105-3.727 1.659-7.762 1.659-12.165 0-5.55-1.004-10.567-3.03-14.949-2.028-4.403-4.875-8.11-8.521-11.162-3.625-2.99-7.905-5.325-12.86-6.881-4.937-1.598-10.322-2.396-16.139-2.396-6.268 0-11.407.328-15.441.881-4.035.553-7.25.881-9.605.881-1.516 0-2.99-.041-4.402-.082a34.95 34.95 0 01-3.851-.205 392.704 392.704 0 01-3.851-.368v.368c.349 1.29.717 2.848 1.065 4.71.328 1.885.595 4.239.84 7.046.246 2.847.431 6.163.554 10.034.123 3.851.184 8.315.184 13.518v59.208c0 5.161-.061 9.687-.184 13.517-.123 3.871-.328 7.168-.554 9.953s-.513 5.12-.84 7.004a54.935 54.935 0 01-1.065 4.751v.369h21.832v-.369c-.389-1.29-.695-2.847-1.043-4.751-.349-1.884-.614-4.197-.819-7.004-.246-2.806-.41-6.083-.532-9.953-.184-3.85-.246-8.355-.246-13.517v-20.439c3.277.513 6.492.799 9.646.799 3.153 0 6.226-.163 9.195-.471l32.195 45.445a51.405 51.405 0 013.502 5.673c1.002 1.905 1.597 3.441 1.781 4.607h26.317v-.368c-1.229-.472-2.396-1.126-3.563-1.844a29.669 29.669 0 01-3.564-2.929h-.002zm-46.409-62.751c-3.543 2.683-7.804 4.403-12.739 5.161-4.955.799-10.403.635-16.342-.43v-60.232c1.043-.369 2.334-.676 3.912-1.004 1.311-.246 2.97-.471 4.914-.676 1.926-.246 4.199-.328 6.82-.328 4.116 0 7.721.717 10.813 2.15 3.072 1.434 5.652 3.44 7.701 6 2.027 2.561 3.563 5.715 4.588 9.4 1.043 3.728 1.556 7.844 1.556 12.37 0 6.554-.983 12.124-2.99 16.712-1.925 4.548-4.669 8.194-8.233 10.877zM4502.609 582.328c.348 1.29.695 2.848.982 4.71.349 1.885.574 4.239.84 7.046.226 2.847.431 6.163.533 10.034.123 3.851.164 8.315.164 13.518v59.208c0 5.161-.041 9.687-.164 13.517a235.076 235.076 0 01-.533 9.953c-.266 2.806-.492 5.12-.84 7.004a40.607 40.607 0 01-.982 4.751v.369h21.75v-.369c-.369-1.29-.695-2.847-1.044-4.751-.349-1.884-.614-4.198-.819-7.004-.225-2.806-.389-6.083-.531-9.953-.164-3.85-.246-8.355-.246-13.517v-59.208c0-5.202.082-9.688.246-13.518.164-3.871.328-7.209.531-10.034.205-2.807.472-5.161.819-7.046.348-1.884.676-3.44 1.044-4.71v-.369h-21.75v.369zM4661.043 598.631c-6.246-5.96-13.66-10.609-22.242-13.927-8.602-3.276-17.961-4.956-28.078-4.956-6.717 0-13.024.882-18.883 2.602-5.836 1.72-11.203 4.116-16.015 7.25-4.813 3.072-9.073 6.758-12.819 10.957a65.065 65.065 0 00-9.463 13.885c-2.601 4.997-4.547 10.363-5.877 15.913a73.024 73.024 0 00-2.008 16.998c0 10.199 1.783 19.476 5.285 27.791 3.522 8.356 8.396 15.524 14.643 21.443 6.268 5.919 13.66 10.567 22.262 13.804 8.603 3.236 17.94 4.833 28.059 4.833 6.738 0 13.025-.84 18.842-2.602 5.816-1.72 11.141-4.115 15.975-7.168a62.603 62.603 0 0012.86-10.916c3.769-4.238 6.942-8.847 9.522-13.804s4.547-10.24 5.857-15.831c1.352-5.55 2.007-11.244 2.007-16.998 0-10.117-1.741-19.395-5.263-27.75-3.543-8.355-8.397-15.523-14.664-21.524zm-2.826 77.374c-2.232 6.636-5.408 12.247-9.422 16.876-4.035 4.607-8.847 8.109-14.418 10.567-5.57 2.396-11.734 3.604-18.473 3.604-8.417 0-15.831-1.68-22.2-4.997-6.39-3.4-11.653-8.008-15.913-13.885-4.238-5.878-7.434-12.842-9.564-20.91-2.108-8.008-3.174-16.671-3.174-25.97 0-8.438 1.127-15.953 3.379-22.568 2.213-6.595 5.367-12.206 9.422-16.753 4.014-4.526 8.826-8.049 14.396-10.404 5.591-2.396 11.756-3.604 18.473-3.604 8.418 0 15.812 1.638 22.16 4.956 6.348 3.317 11.611 7.885 15.871 13.722 4.239 5.878 7.455 12.8 9.605 20.767 2.13 8.008 3.215 16.65 3.215 26.011 0 8.376-1.105 15.953-3.359 22.589l.002-.001zM4849.397 594.884c-6.001-4.997-12.983-8.562-20.91-10.752-7.967-2.15-16.343-3.277-25.129-3.277-3.256 0-6.778.082-10.526.205-3.728.123-7.312.246-10.752.369-3.461.123-6.533.246-9.258.369-2.703.123-4.607.205-5.774.205-.635 0-1.517-.041-2.621-.041a74.599 74.599 0 01-3.174-.164c-1.229-.041-2.519-.123-3.912-.164v.369c.369 1.29.696 2.888 1.044 4.792.348 1.966.613 4.361.859 7.168.246 2.806.431 6.205.554 10.117.123 3.87.164 8.396.164 13.599v59.208c0 5.161-.041 9.687-.164 13.517a201.66 201.66 0 01-.554 9.953c-.225 2.785-.512 5.12-.859 7.004-.348 1.925-.676 3.482-1.044 4.751v.369c1.7 0 4.076.082 7.168.205 3.03.164 6.308.328 9.789.512 3.461.205 6.881.369 10.321.513 3.42.164 6.35.205 8.766.205 6.799 0 13.395-.513 19.764-1.639 6.39-1.085 12.369-2.806 17.961-5.202 5.611-2.313 10.731-5.365 15.379-9.031 4.67-3.687 8.644-8.09 11.961-13.23 3.358-5.12 5.938-11.08 7.803-17.838 1.843-6.717 2.766-14.275 2.766-22.712 0-11.756-1.762-21.688-5.264-29.757-3.584-8.151-8.355-14.664-14.355-19.62l-.003-.003zm-1.27 73.912c-1.556 6.163-3.727 11.447-6.492 15.79-2.765 4.361-5.959 7.926-9.646 10.67-3.687 2.743-7.578 4.914-11.735 6.513a58.48 58.48 0 01-12.942 3.236c-4.444.553-8.786.84-13.046.84-1.023 0-2.314-.041-3.83-.082-1.516-.082-3.052-.164-4.628-.246a72.343 72.343 0 01-4.526-.369c-1.434-.164-2.58-.287-3.399-.41-.287-3.727-.472-8.355-.655-13.926-.164-5.591-.328-11.407-.43-17.49-.061-6.083-.164-12.001-.205-17.756-.082-5.755-.102-10.649-.102-14.725 0-1.966 0-4.157.041-6.677.041-2.519.061-5.16.102-7.926.02-2.765.061-5.55.102-8.438.021-2.848.062-5.632.123-8.356.123-6.41.246-12.964.369-19.763 1.168-.041 2.643-.164 4.424-.328 1.803-.123 3.707-.246 5.734-.369 2.027-.082 4.055-.164 6.145-.246a92.394 92.394 0 015.549-.164c8.315 0 15.668 1.29 22.058 3.871 6.41 2.561 11.756 6.369 16.118 11.325 4.342 4.956 7.619 11.08 9.871 18.33 2.232 7.27 3.359 15.524 3.359 24.842.02 8.458-.778 15.688-2.355 21.853l-.004.001zM4929.289 703.529c-6 .594-12.574.922-19.763.922v-57.078c4.076 0 8.335.164 12.759.513 4.424.348 8.52.717 12.288 1.167 4.383.471 8.644.963 12.841 1.516l2.807-13.21a185.37 185.37 0 01-10.896 1.29c-3.522.287-7.804.594-12.841.922-5.038.287-10.67.471-16.938.512v-49.684c2.273-.123 4.485-.246 6.656-.369 1.884-.123 3.85-.205 5.878-.328 2.028-.082 3.769-.123 5.243-.123 4.301 0 8.109.164 11.407.472 3.297.368 6.103.676 8.397 1.044 2.683.43 4.996.922 7.024 1.475l4.465-12.083c-1.577.287-4.588.512-8.991.717-4.424.164-9.789.287-16.016.41-6.267.082-13.147.164-20.623.205-7.475.082-15.012.123-22.609.123v.369c.369 1.29.695 2.847 1.044 4.71s.614 4.239.86 7.045c.266 2.847.43 6.164.553 10.035.102 3.85.184 8.314.184 13.517v59.208c0 5.161-.082 9.688-.184 13.518-.123 3.871-.307 7.168-.553 9.953-.246 2.806-.513 5.119-.86 7.004-.349 1.925-.676 3.481-1.044 4.751v.368h39.322c.594 0 1.576 0 2.949.041 1.371.041 2.949.082 4.689.082 1.741.041 3.604.082 5.591.082 1.966.082 3.851.082 5.612.164 1.801.082 3.42.123 4.873.164 1.455.082 2.541.164 3.277.205l2.621-14.725a151.321 151.321 0 01-14.275 2.99c-4.506.818-9.748 1.494-15.748 2.108l.001-.002zM5036.83 582.328c.349 1.29.696 2.848 1.045 4.71.348 1.863.594 4.239.859 7.046.246 2.847.43 6.163.553 10.034.103 3.851.185 8.315.185 13.518v75.96c0 6.431-.185 12.37-.554 17.797-.348 5.448-1.207 10.486-2.498 15.196a53.288 53.288 0 01-5.633 13.229c-2.457 4.116-5.774 8.09-9.953 11.919l1.639 2.273c4.833-3.523 9.318-7.127 13.414-10.752s7.639-7.763 10.65-12.432c2.99-4.607 5.345-9.952 7.004-15.913 1.679-6.042 2.498-13.128 2.498-21.319v-75.96c0-5.202.082-9.688.185-13.518.144-3.871.308-7.209.554-10.035.225-2.806.512-5.16.881-7.045.348-1.884.654-3.44 1.043-4.71v-.369h-21.832v.369l-.04.002zM5194.547 704.635c-1.106-1.966-2.254-4.157-3.523-6.636a130.296 130.296 0 01-3.584-7.599l-49.418-111.206h-7.27l-52.143 115.671c-1.945 4.444-3.727 8.11-5.366 11.039-1.659 2.97-2.99 4.997-4.076 6.164v.369h18.534v-.369c-.123-.205-.225-.553-.369-1.044-.123-.512-.164-1.208-.164-1.966 0-2.765.492-5.448 1.516-8.11 1.045-2.642 2.008-5.12 2.908-7.352l10.486-24.044c3.604-.123 7.598-.164 12.063-.164h32.174c5.653 0 10.18.041 13.578.164l10.998 24.76c1.455 3.4 2.418 6.246 2.949 8.521.533 2.273.758 4.361.758 6.245 0 .472 0 1.044-.061 1.639-.082.594-.164 1.044-.287 1.352v.369h24.924v-.369c-.287-.369-.881-1.208-1.721-2.56-.881-1.312-1.842-2.949-2.908-4.874h.002zm-47.351-43.315c-3.256.041-6.676.082-10.22.123-3.564.041-7.188.041-10.875.082-3.728.041-7.312.041-10.813.041h-9.83l25.129-58.122 25.58 57.754c-2.703.082-5.692.123-8.971.122zM5306.551 582.328c.349 1.29.696 2.848 1.024 4.71.369 1.885.614 4.239.881 7.046.246 2.847.431 6.163.513 10.034.143 3.851.205 8.315.205 13.518v64.041l-93.717-99.717h-5.815v.368c.349 1.29.696 2.848 1.044 4.711.348 1.862.613 4.238.859 7.045.246 2.847.431 6.164.554 10.034.123 3.851.185 8.315.185 13.518v59.208c0 5.161-.062 9.687-.185 13.517-.144 3.871-.328 7.168-.554 9.953-.225 2.785-.512 5.12-.859 7.004-.348 1.925-.695 3.482-1.044 4.751v.369h16.2v-.369c-.389-1.29-.695-2.847-1.004-4.751-.307-1.884-.573-4.198-.84-7.004-.246-2.806-.43-6.083-.532-9.953-.123-3.85-.185-8.355-.185-13.517v-62.239l93.717 99.635h3.194v-96.604c0-5.202.062-9.688.185-13.518.102-3.87.307-7.209.531-10.034.246-2.807.513-5.161.84-7.045.287-1.885.614-3.441.983-4.711v-.368h-16.179v.368h-.001zM5386.998 703.529c-6.021.594-12.576.922-19.764.922v-57.078c4.076 0 8.314.164 12.738.513 4.444.369 8.521.717 12.309 1.167 4.361.471 8.643.963 12.82 1.516l2.826-13.21c-3.154.471-6.799.922-10.916 1.29-3.523.287-7.783.594-12.842.922-5.018.287-10.67.471-16.916.512v-49.684c2.254-.123 4.465-.246 6.637-.369 1.884-.123 3.85-.205 5.878-.328 2.028-.082 3.789-.123 5.243-.123 4.301 0 8.109.164 11.428.472 3.297.368 6.125.676 8.397 1.044 2.662.43 4.997.922 7.024 1.475l4.444-12.083c-1.556.287-4.567.512-8.991.717-4.424.164-9.77.287-16.016.41-6.246.082-13.106.164-20.603.205-7.496.082-15.013.123-22.61.123v.369c.349 1.29.696 2.847 1.045 4.71.348 1.863.613 4.239.859 7.045.246 2.847.43 6.164.553 10.035.103 3.85.164 8.314.164 13.517v59.208c0 5.161-.061 9.688-.164 13.518-.143 3.871-.328 7.168-.553 9.953-.225 2.784-.512 5.119-.859 7.004-.349 1.925-.696 3.481-1.045 4.751v.368h39.301c.595 0 1.598 0 2.971.041s2.93.082 4.689.082c1.762.041 3.625.082 5.592.082 1.965.082 3.85.082 5.631.164 1.782.082 3.4.123 4.875.164 1.434.082 2.519.164 3.256.205l2.642-14.725a151.364 151.364 0 01-14.274 2.99c-4.526.817-9.769 1.493-15.769 2.106zM5440.225 582.328c.348 1.29.695 2.848.982 4.71.349 1.885.574 4.239.84 7.046.226 2.847.431 6.163.533 10.034.123 3.851.164 8.315.164 13.518v59.208c0 5.161-.041 9.687-.164 13.517a235.076 235.076 0 01-.533 9.953c-.266 2.806-.492 5.12-.84 7.004a40.607 40.607 0 01-.982 4.751v.369h21.75v-.369c-.369-1.29-.695-2.847-1.044-4.751-.349-1.884-.614-4.198-.819-7.004-.225-2.806-.389-6.083-.531-9.953-.164-3.85-.246-8.355-.246-13.517v-59.208c0-5.202.082-9.688.246-13.518.164-3.871.328-7.209.531-10.034.205-2.807.472-5.161.819-7.046.348-1.884.676-3.44 1.044-4.71v-.369h-21.75v.369zM5583.482 707.318c-1.249-1.126-2.54-2.519-3.891-4.157-1.352-1.638-2.848-3.604-4.424-5.837l-31.929-44.831a42.516 42.516 0 009.544-5.878 34.882 34.882 0 007.332-8.09c2.027-2.99 3.604-6.41 4.71-10.117 1.106-3.727 1.679-7.762 1.679-12.165 0-5.55-1.004-10.567-3.051-14.949-2.028-4.403-4.854-8.11-8.5-11.162-3.645-2.99-7.926-5.325-12.86-6.881-4.956-1.598-10.342-2.396-16.159-2.396-6.246 0-11.407.328-15.421.881-4.035.553-7.25.881-9.604.881-1.517 0-2.99-.041-4.424-.082-1.435 0-2.725-.082-3.851-.205a458.828 458.828 0 01-3.83-.368v.368c.349 1.29.696 2.848 1.044 4.71.348 1.863.613 4.239.859 7.046.246 2.847.431 6.163.554 10.034.123 3.851.164 8.315.164 13.518v59.208c0 5.161-.041 9.687-.164 13.517-.144 3.871-.328 7.168-.554 9.953-.225 2.785-.512 5.12-.859 7.004-.348 1.925-.695 3.482-1.044 4.751v.369h21.832v-.369c-.39-1.29-.717-2.847-1.044-4.751-.348-1.884-.613-4.197-.84-7.004-.227-2.806-.389-6.083-.532-9.953-.164-3.85-.246-8.355-.246-13.517v-20.439c3.297.513 6.492.799 9.667.799s6.227-.163 9.175-.471l32.215 45.445c1.331 1.884 2.499 3.768 3.502 5.673s1.597 3.441 1.782 4.607h26.296v-.368c-1.229-.472-2.396-1.126-3.563-1.844-1.107-.8-2.315-1.721-3.565-2.93zm-46.386-62.751c-3.564 2.683-7.823 4.403-12.759 5.161-4.937.799-10.383.635-16.343-.43v-60.232c1.044-.369 2.335-.676 3.932-1.004 1.291-.246 2.971-.471 4.896-.676 1.946-.246 4.198-.328 6.819-.328 4.138 0 7.742.717 10.834 2.15 3.072 1.434 5.633 3.44 7.681 6 2.028 2.561 3.563 5.715 4.608 9.4 1.043 3.728 1.556 7.844 1.556 12.37 0 6.554-1.004 12.124-2.99 16.712-1.926 4.548-4.691 8.194-8.234 10.877zM5708.717 598.631c-6.246-5.96-13.66-10.609-22.24-13.927-8.582-3.276-17.94-4.956-28.059-4.956-6.738 0-13.025.882-18.902 2.602-5.838 1.72-11.183 4.116-15.996 7.25-4.813 3.072-9.092 6.758-12.84 10.957s-6.881 8.847-9.463 13.885c-2.58 4.997-4.547 10.363-5.856 15.913a73.076 73.076 0 00-2.007 16.998c0 10.199 1.762 19.476 5.284 27.791 3.502 8.356 8.397 15.524 14.644 21.443s13.66 10.567 22.24 13.804c8.603 3.236 17.961 4.833 28.078 4.833 6.717 0 13.025-.84 18.821-2.602 5.837-1.72 11.162-4.115 15.995-7.168a62.582 62.582 0 0012.861-10.916c3.768-4.238 6.942-8.847 9.522-13.804s4.526-10.24 5.856-15.831a72.764 72.764 0 002.008-16.998c0-10.117-1.762-19.395-5.264-27.75-3.542-8.355-8.395-15.523-14.682-21.524zm-2.805 77.374c-2.232 6.636-5.408 12.247-9.422 16.876-4.035 4.607-8.847 8.109-14.418 10.567-5.57 2.396-11.756 3.604-18.473 3.604-8.417 0-15.831-1.68-22.2-4.997-6.39-3.4-11.674-8.008-15.913-13.885-4.239-5.878-7.434-12.842-9.564-20.91-2.129-8.008-3.174-16.671-3.174-25.97 0-8.438 1.127-15.953 3.359-22.568s5.387-12.206 9.421-16.753c4.035-4.526 8.847-8.049 14.418-10.404 5.571-2.396 11.735-3.604 18.474-3.604 8.416 0 15.789 1.638 22.139 4.956 6.369 3.317 11.633 7.885 15.872 13.722 4.26 5.878 7.455 12.8 9.604 20.767 2.15 8.008 3.236 16.65 3.236 26.011 0 8.376-1.105 15.953-3.359 22.588zM2802.258 102.4h10.24v819.2h-10.24V102.4z"/>
</svg>
