<?xml version="1.0" encoding="utf-8"?>
<!-- Generator: Adobe Illustrator 15.1.0, SVG Export Plug-In . SVG Version: 6.00 Build 0)  -->
<!DOCTYPE svg PUBLIC "-//W3C//DTD SVG 1.1//EN" "http://www.w3.org/Graphics/SVG/1.1/DTD/svg11.dtd">
<svg version="1.1" id="Camada_1" xmlns="http://www.w3.org/2000/svg" xmlns:xlink="http://www.w3.org/1999/xlink" x="0px" y="0px"
	 width="6144px" height="1024px" viewBox="0 0 6144 1024" enable-background="new 0 0 6144 1024" xml:space="preserve">
<title></title>
<g id="icomoon-ignore">
</g>
<path fill="#FFFFFF" d="M952.467,743.285V286.692c-0.395-15.366-6.084-26.683-17.088-33.898
	c-11.005-7.216-24.944-10.773-41.885-10.691c-12.3-0.017-22.057,1.837-29.306,5.576c-7.249,3.738-13.792,9.544-19.597,17.433
	L565.538,632.573L288.684,265.111c-5.904-8.183-12.824-14.087-20.778-17.711c-7.953-3.624-18.284-5.379-31.027-5.313
	c-17.236-0.065-31.29,3.478-42.147,10.692c-10.84,7.216-16.465,18.515-16.809,33.898V743.27h99.232V420.415l238.743,312.853
	c5.691,7.117,12.464,12.397,20.319,15.809c7.854,3.396,17.153,5.067,27.862,5.019c10.726,0.033,19.991-1.624,27.863-5.019
	c7.854-3.395,14.628-8.675,20.302-15.809l239.464-312.853V743.27h100.759V743.285z"/>
<path fill="#FFFFFF" d="M1428.164,603.103c70.288,1.082,118.83-9.2,145.692-30.815c26.846-21.68,39.67-61.268,38.392-118.765
	v-42.409c1.065-57.25-12.055-98.101-39.457-122.52c-27.437-24.436-75.618-36.325-144.627-35.719h-392.651v490.408h109.319V603.102
	L1428.164,603.103L1428.164,603.103z M1502.947,449.194c0.395,25.386-5.066,42.753-16.514,52.134
	c-11.48,9.364-31.356,13.809-59.728,13.301h-281.873V347.075h280.447c29.043-0.476,49.346,4.265,60.957,14.202
	c11.627,9.954,17.188,27.978,16.728,54.103v33.815L1502.947,449.194z"/>
<path fill="#FFFFFF" d="M2263.24,743.285l-287.646-166.027h86.277c66.664,1.082,115.861-8.577,147.61-28.994
	c31.767-20.435,47.559-58.48,47.296-114.141v-33.815c0.525-57.727-14.579-97.035-45.213-117.929
	c-30.667-20.876-80.078-30.716-148.201-29.503h-384.059v490.408h108.598V564.989l286.924,178.295L2263.24,743.285L2263.24,743.285z
	 M2147.444,432.663c0.623,25.846-5.805,42.819-19.204,50.855c-13.431,8.085-37.473,11.742-72.092,10.988h-268.245V344.943h268.245
	c35.274-0.754,59.497,2.87,72.649,10.873c13.151,7.97,19.367,24.714,18.662,50.231v26.615H2147.444z"/>
<path fill="#FFFFFF" d="M2430.269,743.285c71.715,0.787,121.356-11.823,148.923-37.734c27.584-25.846,40.753-69.354,39.473-130.523
	v-322.15H2509.33v317.166c0.771,28.485-5.067,49-17.434,61.48s-35.784,18.613-70.271,18.302h-118.666v93.46H2430.269
	L2430.269,743.285z"/>
<path fill="#FFFFFF" d="M3227.812,494.428c-0.758-2.643-1.495-5.837-2.253-9.564c-0.737-3.727-1.413-8.191-2.089-13.414
	l-22.917-166.093h-13.292l-87.224,164.413l-87.941-164.413h-17.756c-0.287,2.602-0.717,6.492-1.331,11.674
	c-0.595,5.161-1.372,11.244-2.294,18.248c-0.942,6.984-2.008,14.705-3.154,23.143c-1.167,8.438-2.376,17.202-3.645,26.275
	c-1.271,9.093-2.561,18.31-3.912,27.689c-1.353,9.358-2.703,18.514-4.056,27.464c-1.352,8.95-2.662,17.49-3.912,25.641
	c-1.27,8.151-2.396,15.483-3.42,22.017c-0.758,4.465-1.761,8.172-3.071,11.1c-1.312,2.949-2.479,5.14-3.502,6.636v0.554h27.976
	c-0.287-1.495-0.553-3.216-0.86-5.161c-0.184-1.7-0.369-3.728-0.553-6.164c-0.184-2.438-0.287-5.223-0.287-8.397
	c0-2.519,0.246-6.41,0.696-11.674c0.471-5.263,1.085-11.346,1.884-18.248s1.7-14.316,2.725-22.303
	c1.023-7.967,2.048-15.954,3.071-23.962c2.438-18.739,5.263-39.158,8.54-61.235l83.067,155.464l9.646,1.106l82.473-155.197
	l17.736,133.939c0.205,1.494,0.348,2.866,0.43,4.115c0.082,1.271,0.123,2.52,0.123,3.707c0,3.277-0.205,6.063-0.613,8.397
	c-0.409,2.335-0.86,4.014-1.331,5.038v0.553h35.267v-0.553c-0.654-1.106-1.352-2.54-2.048-4.261
	C3229.287,499.283,3228.571,497.092,3227.812,494.428L3227.812,494.428z"/>
<path fill="#FFFFFF" d="M3264.717,305.91c0.553,1.946,1.085,4.362,1.535,7.271c0.472,2.888,0.901,6.492,1.271,10.834
	c0.389,4.321,0.635,9.462,0.84,15.38s0.287,12.82,0.287,20.767v91.014c0,7.926-0.082,14.848-0.287,20.767s-0.45,11.039-0.84,15.319
	c-0.369,4.279-0.778,7.885-1.271,10.752c-0.45,2.908-0.982,5.325-1.535,7.27v0.554h33.423v-0.554
	c-0.553-1.945-1.106-4.361-1.597-7.27c-0.512-2.889-0.942-6.473-1.271-10.752c-0.328-4.28-0.614-9.38-0.819-15.319
	c-0.266-5.919-0.389-12.841-0.389-20.767v-91.014c0-7.926,0.123-14.848,0.389-20.767c0.205-5.919,0.492-11.059,0.819-15.38
	s0.737-7.946,1.271-10.834c0.492-2.908,1.044-5.325,1.597-7.271v-0.553h-33.423V305.91z"/>
<path fill="#FFFFFF" d="M3363.164,505.262c-0.573-1.946-1.106-4.362-1.536-7.271c-0.451-2.888-0.901-6.472-1.271-10.752
	c-0.41-4.279-0.654-9.38-0.859-15.318c-0.185-5.919-0.267-12.842-0.267-20.768v-95.621l143.974,153.088h4.916V360.141
	c0-7.926,0.061-14.848,0.287-20.768c0.164-5.919,0.43-11.059,0.818-15.38c0.369-4.32,0.799-7.945,1.271-10.834
	c0.45-2.907,0.963-5.324,1.536-7.27v-0.532h-24.904v0.573c0.572,1.946,1.105,4.361,1.597,7.27c0.532,2.889,1.004,6.492,1.353,10.834
	c0.348,4.321,0.635,9.462,0.818,15.38c0.185,5.918,0.287,12.82,0.287,20.768v98.427l-143.994-153.23h-8.95v0.572
	c0.553,1.946,1.105,4.362,1.597,7.271c0.492,2.888,0.963,6.492,1.311,10.834c0.39,4.321,0.677,9.462,0.86,15.38
	c0.185,5.918,0.287,12.82,0.287,20.767v91.014c0,7.926-0.102,14.848-0.287,20.767c-0.185,5.919-0.471,11.039-0.86,15.319
	c-0.368,4.279-0.818,7.885-1.311,10.752c-0.492,2.908-1.044,5.325-1.597,7.27v0.554h24.903v-0.614H3363.164z"/>
<path fill="#FFFFFF" d="M3585.556,505.262c-0.532-1.946-1.106-4.362-1.597-7.271c-0.513-2.888-0.942-6.472-1.25-10.752
	c-0.348-4.279-0.613-9.38-0.84-15.318c-0.266-5.919-0.369-12.842-0.369-20.768v-91.013c0-7.926,0.103-14.848,0.369-20.768
	c0.226-5.919,0.492-11.059,0.84-15.38c0.308-4.32,0.718-7.945,1.25-10.834c0.491-2.907,1.064-5.324,1.597-7.27v-0.532h-33.423v0.573
	c0.572,1.946,1.105,4.361,1.556,7.27c0.45,2.889,0.881,6.492,1.249,10.834c0.41,4.321,0.676,9.462,0.859,15.38
	c0.185,5.918,0.287,12.82,0.287,20.768v91.013c0,7.926-0.102,14.848-0.287,20.768c-0.185,5.919-0.45,11.039-0.859,15.318
	c-0.369,4.28-0.778,7.885-1.249,10.752c-0.451,2.908-0.983,5.325-1.556,7.271v0.553h33.423V505.262z"/>
<path fill="#FFFFFF" d="M3722.711,459.141c0-8.11-1.905-15.688-5.652-22.712c-3.789-7.045-8.521-13.783-14.193-20.193
	c-5.673-6.431-11.837-12.636-18.432-18.596c-6.615-5.98-12.801-11.94-18.452-17.9c-5.693-5.96-10.424-12.001-14.172-18.104
	c-3.81-6.104-5.673-12.514-5.673-19.231c0-4.198,0.613-8.008,1.822-11.469s2.99-6.431,5.387-8.95
	c2.375-2.519,5.345-4.465,8.867-5.878c3.564-1.393,7.598-2.109,12.187-2.109c5.12,0,9.585,0.8,13.353,2.376
	c3.769,1.598,7.004,3.564,9.646,5.961c2.662,2.376,4.792,4.914,6.41,7.618c1.658,2.703,2.825,5.12,3.563,7.271h3.092l0.963-26.153
	c-1.454-0.655-3.399-1.495-5.733-2.519c-2.314-1.024-5.019-2.048-8.151-3.072c-3.112-1.024-6.636-1.905-10.567-2.642
	c-3.892-0.759-8.192-1.126-12.861-1.126c-6.35,0-12.473,1.126-18.432,3.379c-5.98,2.212-11.325,5.447-16.016,9.646
	c-4.689,4.198-8.479,9.257-11.346,15.176c-2.847,5.919-4.239,12.555-4.239,19.928c0,6.983,1.065,13.394,3.195,19.21
	c2.13,5.837,4.956,11.283,8.458,16.363c3.523,5.101,7.455,9.852,11.878,14.336c4.444,4.485,8.97,8.848,13.64,13.066
	c4.669,4.239,9.196,8.458,13.619,12.657s8.396,8.54,11.898,13.005s6.309,9.196,8.459,14.172c2.129,4.997,3.215,10.424,3.215,16.282
	c0,4.198-0.737,8.069-2.171,11.592c-1.454,3.543-3.523,6.595-6.205,9.155c-2.725,2.56-5.98,4.566-9.748,6.021
	c-3.769,1.435-8.05,2.171-12.78,2.171c-5.243,0-10.035-0.9-14.396-2.743c-4.384-1.803-8.274-4.239-11.675-7.25
	c-3.399-3.012-6.267-6.514-8.602-10.486c-2.314-3.953-3.994-8.131-5.038-12.513h-3.482l-3.215,30.903
	c2.048,1.394,4.689,2.93,7.905,4.608c3.194,1.7,6.84,3.236,10.895,4.689c4.035,1.435,8.479,2.643,13.251,3.625
	c4.813,0.964,9.871,1.454,15.176,1.454c9.504,0,17.695-1.516,24.597-4.547c6.9-3.031,12.534-6.963,16.916-11.816
	c4.403-4.833,7.618-10.322,9.748-16.426c2.048-6.103,3.092-12.165,3.092-18.227L3722.711,459.141z"/>
<path fill="#FFFFFF" d="M3836.457,487.24c-0.349-4.279-0.614-9.38-0.841-15.318c-0.246-5.919-0.348-12.842-0.348-20.768V317.645
	c10.978,0,20.91,0.471,29.757,1.475c8.868,0.964,16.527,2.028,22.938,3.134c7.455,1.393,14.151,2.948,20.132,4.607l-4.076-22.63
	c-1.126,0.082-2.785,0.184-5.018,0.287c-2.212,0.082-4.71,0.184-7.476,0.266c-2.743,0.103-5.632,0.164-8.663,0.205
	s-5.897,0.082-8.602,0.144c-2.725,0.041-5.101,0.102-7.209,0.143c-2.109,0.041-3.625,0.062-4.567,0.062h-79.811
	c-0.942,0-2.438-0.021-4.548-0.062c-2.089-0.041-4.506-0.082-7.209-0.143c-2.724-0.041-5.55-0.082-8.602-0.144
	c-3.052-0.061-5.919-0.102-8.663-0.205c-2.765-0.082-5.243-0.184-7.476-0.266c-2.231-0.103-3.912-0.185-5.037-0.287l-4.056,22.63
	c5.898-1.679,12.534-3.215,20.009-4.607c6.41-1.126,14.091-2.172,22.918-3.134c8.867-0.982,18.779-1.475,29.777-1.475v133.509
	c0,7.926-0.102,14.849-0.287,20.768c-0.185,5.919-0.451,11.039-0.84,15.318c-0.389,4.28-0.778,7.885-1.249,10.752
	c-0.451,2.908-1.004,5.325-1.556,7.271v0.553h33.423v-0.553c-0.553-1.946-1.106-4.362-1.618-7.271
	c-0.471-2.867-0.881-6.472-1.208-10.752H3836.457z"/>
<path fill="#FFFFFF" d="M3987.927,492.135c-9.216,0.941-19.313,1.393-30.311,1.393v-87.654c6.227,0,12.759,0.267,19.559,0.778
	c6.819,0.512,13.106,1.085,18.862,1.741c6.737,0.737,13.291,1.536,19.722,2.376l4.342-20.275
	c-4.833,0.759-10.445,1.394-16.772,1.967c-5.428,0.471-11.981,0.922-19.702,1.393c-7.741,0.471-16.404,0.737-26.011,0.84v-76.329
	c3.441-0.184,6.841-0.369,10.199-0.553c2.889-0.184,5.878-0.369,9.012-0.492c3.112-0.143,5.774-0.205,8.027-0.205
	c6.637,0,12.473,0.267,17.531,0.778c5.1,0.512,9.4,1.065,12.964,1.618c4.076,0.635,7.681,1.393,10.732,2.231l6.86-18.596
	c-2.437,0.471-7.045,0.84-13.844,1.126c-6.82,0.287-15.012,0.471-24.596,0.614c-9.605,0.143-20.152,0.266-31.662,0.369
	c-11.53,0.082-23.102,0.123-34.734,0.123v0.572c0.554,1.946,1.086,4.362,1.598,7.271c0.492,2.888,0.963,6.492,1.311,10.834
	c0.389,4.321,0.655,9.462,0.84,15.38c0.205,5.919,0.287,12.82,0.287,20.767v91.014c0,7.926-0.082,14.848-0.287,20.767
	c-0.184,5.919-0.45,11.039-0.84,15.319c-0.369,4.279-0.818,7.885-1.311,10.752c-0.512,2.908-1.044,5.325-1.598,7.27v0.554h60.375
	c0.942,0,2.459,0.02,4.548,0.061c2.13,0.041,4.506,0.082,7.209,0.143c2.724,0.041,5.55,0.082,8.622,0.144
	c3.011,0.041,5.897,0.123,8.663,0.205c2.743,0.102,5.243,0.184,7.475,0.287c2.212,0.102,3.892,0.184,5.019,0.287l4.055-22.651
	c-6.595,1.761-13.926,3.318-21.955,4.608c-6.902,1.166-14.95,2.253-24.188,3.174L3987.927,492.135z"/>
<path fill="#FFFFFF" d="M3965.071,283.607c3.502-1.536,6.963-3.052,10.404-4.547c3.441-1.476,6.84-2.889,10.199-4.198
	c3.358-1.31,6.574-2.52,9.667-3.646c7.086-2.601,14.09-5.078,20.95-7.393l-12.86-21.811c-5.407,4.956-10.998,9.829-16.753,14.684
	c-5.038,4.198-10.588,8.663-16.609,13.435c-5.979,4.751-12.021,9.114-18.084,13.128l3.072,5.182
	C3958.231,286.762,3961.59,285.144,3965.071,283.607L3965.071,283.607z"/>
<path fill="#FFFFFF" d="M4184.474,505.837h40.448v-0.554c-1.863-0.758-3.707-1.7-5.468-2.867c-1.782-1.167-3.625-2.642-5.53-4.402
	c-1.924-1.761-3.912-3.912-6.021-6.432c-2.108-2.519-4.362-5.509-6.758-8.949l-49.069-68.915c5.406-2.417,10.301-5.428,14.664-9.012
	c4.383-3.584,8.131-7.699,11.264-12.369c3.113-4.669,5.55-9.852,7.27-15.585c1.721-5.734,2.58-11.961,2.58-18.679
	c0-8.581-1.576-16.241-4.689-22.999c-3.092-6.758-7.455-12.472-13.066-17.121c-5.57-4.669-12.205-8.191-19.804-10.649
	c-7.578-2.417-15.853-3.625-24.801-3.625c-9.604,0-17.49,0.43-23.694,1.311c-6.205,0.881-11.1,1.331-14.746,1.331
	c-2.336,0-4.588-0.02-6.779-0.082c-2.191-0.062-4.178-0.164-5.96-0.348c-2.048-0.185-3.974-0.389-5.837-0.573v0.573
	c0.531,1.946,1.085,4.362,1.597,7.27c0.492,2.889,0.942,6.492,1.312,10.834c0.369,4.343,0.654,9.462,0.84,15.381
	c0.185,5.918,0.287,12.819,0.287,20.767v91.013c0,7.926-0.103,14.849-0.287,20.768c-0.186,5.919-0.451,11.039-0.84,15.318
	c-0.39,4.28-0.819,7.886-1.312,10.752c-0.512,2.908-1.065,5.325-1.597,7.271v0.553h33.546v-0.553
	c-0.554-1.946-1.106-4.362-1.618-7.271c-0.492-2.888-0.922-6.472-1.249-10.752c-0.349-4.279-0.614-9.38-0.84-15.318
	c-0.246-5.919-0.349-12.842-0.349-20.768v-31.457c5.019,0.84,9.953,1.271,14.808,1.271s9.544-0.246,14.11-0.696l49.48,69.755
	c2.089,2.888,3.85,5.796,5.387,8.724c1.576,2.971,2.478,5.305,2.724,7.087H4184.474z M4142.633,401.531
	c-5.469,4.097-11.981,6.758-19.58,7.967c-7.598,1.229-15.974,0.983-25.088-0.695v-92.549c1.578-0.573,3.584-1.065,6.002-1.536
	c2.047-0.39,4.588-0.718,7.537-1.044c2.99-0.328,6.451-0.472,10.485-0.472c6.349,0,11.899,1.085,16.649,3.277
	c4.752,2.192,8.705,5.284,11.817,9.236s5.489,8.786,7.065,14.479c1.578,5.693,2.355,12.022,2.355,19.026
	c0,10.056-1.495,18.616-4.525,25.641C4152.32,391.865,4148.081,397.436,4142.633,401.531L4142.633,401.531z"/>
<path fill="#FFFFFF" d="M4272.291,505.262c-0.553-1.946-1.105-4.362-1.617-7.271c-0.513-2.888-0.922-6.472-1.25-10.752
	c-0.348-4.279-0.613-9.38-0.84-15.318c-0.246-5.919-0.348-12.842-0.348-20.768v-91.013c0-7.926,0.102-14.848,0.348-20.768
	c0.226-5.919,0.492-11.059,0.84-15.38c0.328-4.32,0.717-7.945,1.25-10.834c0.512-2.907,1.064-5.324,1.617-7.27v-0.532h-33.422v0.573
	c0.553,1.946,1.084,4.361,1.535,7.27c0.451,2.889,0.881,6.492,1.271,10.834c0.39,4.343,0.655,9.462,0.84,15.38
	s0.287,12.82,0.287,20.768v91.013c0,7.926-0.103,14.848-0.287,20.768c-0.185,5.919-0.451,11.039-0.84,15.318
	c-0.389,4.28-0.799,7.885-1.271,10.752c-0.451,2.908-0.982,5.325-1.535,7.271v0.553h33.422V505.262z"/>
<path fill="#FFFFFF" d="M4512.891,406.713c0-15.565-2.703-29.778-8.109-42.64c-5.407-12.86-12.902-23.88-22.508-33.055
	c-9.627-9.175-20.992-16.302-34.182-21.381c-13.21-5.079-27.566-7.64-43.131-7.64c-10.342,0-20.009,1.331-29,3.994
	s-17.203,6.369-24.596,11.101c-7.394,4.751-13.988,10.383-19.703,16.854c-5.733,6.492-10.608,13.6-14.561,21.34
	c-3.932,7.722-6.963,15.872-9.012,24.453c-2.047,8.562-3.071,17.285-3.071,26.132c0,15.667,2.724,29.901,8.11,42.701
	c5.426,12.82,12.922,23.798,22.527,32.933c9.605,9.134,20.992,16.199,34.182,21.176c13.188,4.977,27.565,7.475,43.131,7.475
	c10.321,0,20.008-1.311,28.918-3.973c8.97-2.662,17.142-6.328,24.556-11.06c7.394-4.689,14.008-10.28,19.763-16.772
	c5.797-6.472,10.67-13.537,14.623-21.176c3.953-7.66,6.963-15.749,9.012-24.33C4511.888,424.284,4512.892,415.56,4512.891,406.713
	L4512.891,406.713z M4477.932,449.844c-3.441,10.22-8.273,18.842-14.479,25.928s-13.559,12.493-22.16,16.22
	c-8.561,3.728-18.043,5.591-28.365,5.591c-12.983,0-24.33-2.579-34.119-7.762c-9.789-5.161-17.94-12.268-24.453-21.32
	c-6.514-9.052-11.429-19.742-14.705-32.071c-3.256-12.35-4.875-25.661-4.875-39.916c0-12.964,1.721-24.516,5.182-34.673
	c3.441-10.158,8.253-18.739,14.459-25.724c6.206-6.983,13.6-12.329,22.159-16.015c8.581-3.666,18.043-5.53,28.385-5.53
	c12.964,0,24.31,2.54,34.058,7.619c9.729,5.1,17.859,12.124,24.393,21.115c6.514,8.991,11.428,19.62,14.746,31.867
	c3.297,12.268,4.956,25.559,4.956,39.916C4483.112,428.052,4481.371,439.623,4477.932,449.844L4477.932,449.844z"/>
<path fill="#FFFFFF" d="M4731.842,319.058c-5.57-5.038-12.205-8.868-19.804-11.469c-7.599-2.602-15.853-3.912-24.821-3.912
	c-9.586,0-17.49,0.43-23.676,1.311c-6.205,0.881-11.121,1.331-14.746,1.331c-2.334,0-4.607-0.02-6.778-0.082
	c-2.19-0.041-4.198-0.164-5.96-0.348c-2.048-0.185-3.994-0.389-5.857-0.573v0.573c0.554,1.946,1.086,4.362,1.619,7.27
	c0.492,2.889,0.941,6.492,1.289,10.834c0.41,4.321,0.655,9.462,0.86,15.38c0.185,5.92,0.267,12.82,0.267,20.768v91.013
	c0,7.926-0.082,14.849-0.267,20.768c-0.205,5.919-0.451,11.039-0.86,15.318c-0.369,4.28-0.799,7.886-1.289,10.752
	c-0.533,2.908-1.065,5.325-1.619,7.271v0.553h33.547v-0.553c-0.533-1.946-1.106-4.362-1.598-7.271
	c-0.492-2.888-0.922-6.472-1.249-10.752c-0.349-4.279-0.614-9.38-0.86-15.318c-0.225-5.919-0.348-12.842-0.348-20.768v-23.204
	c11.816,1.762,23.143,1.659,33.977-0.369c10.793-2.007,20.336-5.796,28.631-11.387c8.293-5.591,14.93-12.923,19.865-21.955
	c4.937-9.031,7.414-19.743,7.414-32.153c0-9.236-1.576-17.47-4.689-24.679c-3.092-7.209-7.455-13.312-13.046-18.35L4731.842,319.058
	z M4717.097,390.923c-3.03,7.557-7.271,13.536-12.718,17.961c-5.468,4.424-11.98,7.311-19.579,8.663
	c-7.599,1.352-15.974,1.188-25.108-0.492V316.252c1.578-0.573,3.584-1.065,6.021-1.536c2.048-0.39,4.566-0.718,7.516-1.044
	c2.99-0.328,6.473-0.472,10.506-0.472c6.35,0,11.899,1.188,16.65,3.543c4.751,2.396,8.704,5.755,11.816,10.076
	c3.113,4.321,5.469,9.585,7.066,15.79c1.577,6.205,2.355,13.066,2.355,20.623C4721.623,374.148,4720.127,383.364,4717.097,390.923
	L4717.097,390.923z"/>
<path fill="#FFFFFF" d="M4844.994,283.607c3.502-1.536,6.984-3.052,10.404-4.547c3.461-1.476,6.861-2.889,10.221-4.198
	s6.574-2.52,9.666-3.646c7.066-2.601,14.07-5.078,20.951-7.393l-12.86-21.811c-5.407,4.956-10.998,9.829-16.772,14.684
	c-5.019,4.198-10.568,8.663-16.59,13.435c-6,4.751-12.021,9.114-18.104,13.128l3.072,5.182c3.194-1.679,6.513-3.297,10.015-4.833
	L4844.994,283.607z"/>
<path fill="#FFFFFF" d="M4778.66,324.014c0.369,4.321,0.654,9.462,0.84,15.38c0.185,5.918,0.287,12.82,0.287,20.767v76.883
	c0,13.312,2.047,24.637,6.164,33.894c4.076,9.277,9.789,16.835,16.978,22.651c7.229,5.815,15.708,10.034,25.437,12.656
	c9.748,2.602,20.233,3.892,31.539,3.892c11.264,0,21.668-1.372,31.149-4.116c9.522-2.744,17.653-7.127,24.474-13.128
	c6.799-6.021,12.104-13.722,15.914-23.142c3.85-9.4,5.733-20.809,5.733-34.12v-75.489c0-7.926,0.103-14.848,0.369-20.767
	c0.226-5.92,0.492-11.06,0.84-15.381c0.308-4.32,0.737-7.945,1.249-10.834c0.512-2.907,1.064-5.324,1.598-7.27v-0.532h-24.883v0.573
	c0.553,1.946,1.084,4.362,1.535,7.27c0.472,2.889,0.901,6.492,1.271,10.834c0.39,4.321,0.635,9.462,0.84,15.381
	c0.205,5.918,0.287,12.819,0.287,20.767V438.6c0,11.1-1.659,20.255-4.978,27.484c-3.297,7.229-7.619,12.964-12.983,17.183
	c-5.366,4.26-11.51,7.209-18.371,8.888c-6.901,1.68-13.946,2.52-21.115,2.52s-14.213-0.84-21.095-2.52
	c-6.922-1.679-13.045-4.628-18.451-8.888c-5.428-4.239-9.77-9.974-13.066-17.183c-3.297-7.229-4.977-16.385-4.977-27.484v-78.418
	c0-7.926,0.082-14.848,0.287-20.767c0.205-5.92,0.471-11.06,0.84-15.381c0.368-4.32,0.818-7.945,1.33-10.834
	c0.492-2.907,1.024-5.324,1.598-7.27v-0.573h-33.566v0.573c0.572,1.946,1.105,4.362,1.597,7.27
	C4777.842,316.068,4778.271,319.693,4778.66,324.014L4778.66,324.014z"/>
<path fill="#FFFFFF" d="M5031.711,508.068c25.824,0,45.199-4.915,58.162-14.746c12.943-9.83,19.416-24.576,19.416-44.257
	c0-6.984-1.271-13.332-3.851-19.087c-2.56-5.734-6.185-10.752-10.896-15.032c-4.689-4.28-10.321-7.844-16.834-10.69
	c-6.533-2.848-13.764-4.874-21.688-6.083c5.427-1.495,10.362-3.502,14.909-6.083c4.525-2.561,8.376-5.734,11.592-9.503
	c3.195-3.789,5.714-8.213,7.475-13.271c1.762-5.1,2.662-10.834,2.662-17.285c0-7.639-1.453-14.459-4.402-20.479
	c-2.949-6.021-7.004-11.08-12.186-15.177c-5.162-4.096-11.306-7.25-18.371-9.421c-7.066-2.171-14.828-3.276-23.205-3.276
	c-9.031,0-16.444,0.328-22.158,0.963c-5.734,0.655-10.281,0.982-13.641,0.982c-2.314,0-4.588,0-6.758,0
	c-2.191,0-4.178-0.041-5.96-0.143c-2.048,0-3.994-0.041-5.856-0.143v0.572c0.553,1.946,1.084,4.362,1.597,7.271
	c0.492,2.888,0.963,6.492,1.331,10.834c0.369,4.32,0.635,9.462,0.818,15.38c0.205,5.919,0.308,12.82,0.308,20.767v91.014
	c0,7.926-0.103,14.848-0.308,20.767c-0.184,5.919-0.451,11.039-0.818,15.319c-0.389,4.279-0.84,7.885-1.331,10.752
	c-0.513,2.908-1.044,5.325-1.597,7.27v0.553h9.215c2.807,0,6.063,0.123,9.789,0.349c3.748,0.246,7.537,0.492,11.408,0.778
	c3.85,0.266,7.66,0.512,11.406,0.758c3.748,0.225,6.984,0.348,9.77,0.348L5031.711,508.068z M5009.633,315.986
	c1.475-0.553,3.297-1.023,5.447-1.393c1.885-0.369,4.117-0.696,6.779-0.983c2.643-0.266,5.734-0.41,9.298-0.41
	c5.53,0,10.403,0.922,14.685,2.785c4.279,1.863,7.926,4.547,10.834,8.049c2.929,3.502,5.16,7.722,6.636,12.657
	c1.476,4.937,2.212,10.445,2.212,16.507c0,7.25-1.023,13.619-3.052,19.067c-2.048,5.468-4.915,9.994-8.603,13.64
	c-3.687,3.646-8.131,6.369-13.353,8.172c-5.222,1.804-10.978,2.725-17.347,2.725c-2.314,0-4.506,0-6.555-0.062
	c-2.048-0.041-4.383-0.205-6.984-0.471v-80.282L5009.633,315.986z M5010.186,478.168c-0.369-7.087-0.532-16.098-0.532-26.993
	v-42.354c2.335-0.471,5.632-0.922,9.933-1.393c4.26-0.472,9.586-0.696,15.893-0.696c7.66,0,14.336,1.065,20.07,3.154
	c5.713,2.108,10.506,5.059,14.254,8.868c3.768,3.829,6.615,8.376,8.539,13.64c1.905,5.263,2.848,11.059,2.848,17.408
	c0,16.138-4.014,28.078-12.104,35.859c-8.049,7.782-20.787,11.675-38.217,11.675c-2.129,0-4.996-0.185-8.539-0.554
	c-3.523-0.369-7.066-0.777-10.629-1.249C5011.087,491.009,5010.574,485.233,5010.186,478.168L5010.186,478.168z"/>
<path fill="#FFFFFF" d="M5221.498,506.184c3.031,0.041,5.898,0.123,8.664,0.205c2.765,0.102,5.263,0.184,7.475,0.287
	c2.232,0.102,3.912,0.184,5.038,0.287l4.056-22.651c-6.615,1.761-13.947,3.318-21.976,4.608c-6.881,1.208-14.931,2.294-24.166,3.215
	c-9.216,0.941-19.333,1.393-30.31,1.393V360.162c0-7.926,0.102-14.848,0.348-20.767c0.225-5.919,0.492-11.059,0.84-15.38
	c0.328-4.321,0.736-7.946,1.249-10.834c0.492-2.908,1.065-5.325,1.618-7.271v-0.553h-33.546v0.573
	c0.532,1.946,1.085,4.361,1.597,7.27c0.492,2.889,0.942,6.492,1.312,10.834c0.369,4.343,0.655,9.462,0.84,15.38
	s0.287,12.82,0.287,20.768v91.013c0,7.926-0.103,14.848-0.287,20.768c-0.185,5.919-0.451,11.039-0.84,15.318
	c-0.389,4.28-0.819,7.885-1.312,10.752c-0.512,2.908-1.064,5.325-1.597,7.271v0.553h60.375c0.922,0,2.437,0.021,4.547,0.062
	s4.506,0.081,7.209,0.143c2.683,0.02,5.55,0.061,8.581,0.123L5221.498,506.184z"/>
<path fill="#FFFFFF" d="M5307.125,505.262c-0.553-1.946-1.105-4.362-1.597-7.271c-0.513-2.888-0.942-6.472-1.271-10.752
	c-0.328-4.279-0.594-9.38-0.818-15.318c-0.266-5.919-0.389-12.842-0.389-20.768v-91.013c0-7.926,0.123-14.848,0.389-20.768
	c0.225-5.919,0.492-11.059,0.818-15.38c0.327-4.32,0.737-7.945,1.271-10.834c0.492-2.907,1.044-5.324,1.597-7.27v-0.532h-33.422
	v0.573c0.553,1.946,1.084,4.361,1.556,7.27c0.451,2.889,0.881,6.492,1.249,10.834c0.389,4.321,0.654,9.462,0.859,15.38
	c0.185,5.919,0.287,12.82,0.287,20.768v91.013c0,7.926-0.102,14.848-0.287,20.768c-0.205,5.919-0.471,11.039-0.859,15.318
	c-0.369,4.28-0.777,7.885-1.249,10.752c-0.472,2.908-1.004,5.325-1.556,7.271v0.553h33.422V505.262z"/>
<path fill="#FFFFFF" d="M5516.533,473.253l-1.535-0.983c-3.543,4.014-7.455,7.598-11.817,10.691
	c-4.321,3.133-8.95,5.774-13.845,7.967c-4.873,2.19-9.974,3.85-15.299,4.977c-5.304,1.106-10.629,1.68-15.933,1.68
	c-14.705,0-27.606-2.58-38.646-7.763c-11.06-5.161-20.256-12.268-27.629-21.319c-7.373-9.032-12.901-19.743-16.629-32.072
	c-3.748-12.35-5.592-25.661-5.592-39.916c0-12.964,1.946-24.516,5.879-34.673c3.891-10.158,9.379-18.739,16.424-25.724
	c7.025-6.983,15.442-12.329,25.231-16.015c9.789-3.666,20.541-5.53,32.276-5.53c12.205,0,23.408,2.007,33.627,6.001
	c10.221,4.015,18.965,9.38,26.215,16.077l1.27-0.553l-9.503-25.866c-15.38-5.489-32.071-8.253-50.074-8.253
	c-11.53,0-22.282,1.331-32.194,3.994c-9.913,2.663-19.006,6.369-27.279,11.1c-8.232,4.751-15.585,10.383-21.996,16.855
	c-6.432,6.492-11.816,13.599-16.221,21.34c-4.402,7.721-7.699,15.872-9.994,24.453c-2.293,8.561-3.42,17.285-3.42,26.132
	c0,15.667,2.867,29.901,8.603,42.701c5.714,12.819,13.742,23.798,24.044,32.932c10.281,9.134,22.609,16.2,36.925,21.176
	c14.295,4.978,30.065,7.476,47.31,7.476c8.602,0,17.08-0.717,25.518-2.15c8.438-1.454,16.139-3.522,23.143-6.226l11.141-28.508
	H5516.533z"/>
<path fill="#FFFFFF" d="M5733.375,364.073c-5.406-12.86-12.901-23.88-22.508-33.055c-9.625-9.175-20.992-16.302-34.181-21.381
	c-13.21-5.079-27.587-7.64-43.131-7.64c-10.342,0-20.028,1.331-29,3.994c-8.991,2.662-17.224,6.369-24.597,11.101
	c-7.414,4.751-13.987,10.383-19.722,16.854c-5.714,6.492-10.588,13.6-14.541,21.34c-3.953,7.722-6.963,15.872-9.011,24.453
	c-2.049,8.562-3.072,17.285-3.072,26.132c0,15.667,2.725,29.901,8.109,42.701c5.428,12.82,12.943,23.798,22.528,32.933
	c9.604,9.134,20.992,16.199,34.181,21.176c13.189,4.976,27.566,7.475,43.11,7.475c10.342,0,20.009-1.311,28.938-3.973
	c8.97-2.662,17.142-6.328,24.556-11.06c7.394-4.689,14.008-10.28,19.763-16.772c5.797-6.472,10.67-13.537,14.623-21.176
	c3.953-7.66,6.963-15.749,9.012-24.33c2.068-8.581,3.072-17.285,3.072-26.153C5741.506,391.148,5738.803,376.935,5733.375,364.073
	L5733.375,364.073z M5706.526,449.844c-3.42,10.22-8.253,18.842-14.459,25.928s-13.558,12.493-22.14,16.22
	c-8.602,3.728-18.063,5.591-28.405,5.591c-12.964,0-24.33-2.579-34.099-7.762c-9.789-5.161-17.94-12.268-24.453-21.32
	c-6.514-9.052-11.429-19.742-14.705-32.071c-3.256-12.35-4.875-25.661-4.875-39.916c0-12.964,1.721-24.516,5.162-34.673
	c3.461-10.158,8.273-18.739,14.479-25.724c6.205-6.983,13.6-12.329,22.159-16.015c8.562-3.666,18.043-5.53,28.385-5.53
	c12.964,0,24.31,2.54,34.058,7.619c9.709,5.1,17.859,12.124,24.393,21.115c6.492,8.991,11.407,19.62,14.746,31.867
	c3.297,12.268,4.956,25.559,4.956,39.916C5711.728,428.052,5710.008,439.623,5706.526,449.844L5706.526,449.844z"/>
<path fill="#FFFFFF" d="M3057.091,594.884c-5.98-4.997-12.984-8.562-20.931-10.752c-7.946-2.15-16.303-3.277-25.108-3.277
	c-3.277,0-6.779,0.082-10.506,0.205c-3.748,0.123-7.332,0.246-10.793,0.369c-3.441,0.123-6.533,0.246-9.236,0.369
	s-4.628,0.205-5.774,0.205c-0.677,0-1.557-0.041-2.643-0.041c-1.085-0.041-2.15-0.082-3.174-0.164
	c-1.208-0.041-2.52-0.123-3.912-0.164v0.369c0.369,1.29,0.695,2.888,1.044,4.792c0.348,1.966,0.635,4.361,0.86,7.168
	c0.225,2.806,0.43,6.205,0.531,10.117c0.123,3.87,0.185,8.396,0.185,13.599v59.208c0,5.161-0.062,9.687-0.185,13.517
	c-0.123,3.871-0.307,7.168-0.531,9.953c-0.226,2.785-0.532,5.12-0.86,7.004c-0.349,1.925-0.677,3.482-1.044,4.751v0.369
	c1.699,0,4.076,0.082,7.147,0.205c3.052,0.164,6.328,0.328,9.789,0.512c3.461,0.205,6.902,0.369,10.322,0.513
	c3.44,0.164,6.369,0.205,8.786,0.205c6.799,0,13.373-0.513,19.742-1.639c6.369-1.085,12.371-2.806,17.981-5.202
	c5.612-2.313,10.731-5.365,15.38-9.031c4.628-3.687,8.622-8.09,11.96-13.23c3.338-5.12,5.938-11.08,7.782-17.838
	c1.843-6.717,2.785-14.275,2.785-22.712c0-11.756-1.762-21.688-5.284-29.757c-3.543-8.151-8.315-14.664-14.316-19.62
	L3057.091,594.884z M3055.821,668.796c-1.576,6.163-3.748,11.447-6.492,15.79c-2.743,4.342-5.979,7.926-9.646,10.67
	c-3.666,2.765-7.578,4.914-11.735,6.513c-4.156,1.556-8.479,2.642-12.923,3.236c-4.444,0.553-8.806,0.84-13.046,0.84
	c-1.023,0-2.294-0.041-3.83-0.082c-1.516-0.082-3.072-0.164-4.648-0.246c-1.577-0.082-3.093-0.205-4.507-0.369
	c-1.434-0.164-2.56-0.287-3.42-0.41c-0.246-3.727-0.45-8.355-0.635-13.926c-0.185-5.591-0.328-11.407-0.41-17.49
	c-0.102-6.083-0.184-12.001-0.225-17.756c-0.062-5.755-0.082-10.649-0.082-14.725c0-1.966,0-4.157,0.041-6.677
	c0.041-2.519,0.061-5.16,0.082-7.926c0.041-2.765,0.061-5.55,0.082-8.438c0.02-2.848,0.061-5.632,0.143-8.356
	c0.123-6.41,0.246-12.964,0.369-19.763c1.147-0.041,2.621-0.164,4.403-0.328c1.781-0.123,3.707-0.246,5.733-0.369
	c2.028-0.082,4.076-0.164,6.145-0.246c2.067-0.123,3.912-0.164,5.55-0.164c8.314,0,15.667,1.29,22.077,3.871
	c6.409,2.561,11.775,6.369,16.118,11.325c4.32,4.956,7.639,11.08,9.851,18.33c2.253,7.27,3.379,15.524,3.379,24.842
	c0,8.458-0.799,15.688-2.376,21.853L3055.821,668.796z"/>
<path fill="#FFFFFF" d="M3207.864,598.631c-6.226-5.96-13.66-10.609-22.221-13.927c-8.581-3.276-17.939-4.956-28.078-4.956
	c-6.738,0-13.024,0.882-18.883,2.602s-11.203,4.116-15.995,7.25c-4.813,3.072-9.093,6.758-12.841,10.957s-6.881,8.847-9.462,13.885
	c-2.58,4.997-4.548,10.363-5.857,15.913c-1.331,5.591-2.028,11.244-2.028,16.998c0,10.199,1.782,19.476,5.284,27.791
	c3.523,8.356,8.397,15.524,14.664,21.443c6.246,5.919,13.64,10.567,22.241,13.804c8.581,3.236,17.939,4.833,28.078,4.833
	c6.717,0,13.005-0.84,18.82-2.602c5.838-1.72,11.162-4.115,15.975-7.168c4.813-3.071,9.093-6.717,12.882-10.916
	c3.748-4.238,6.923-8.847,9.503-13.804c2.581-4.957,4.526-10.24,5.878-15.831c1.312-5.55,2.007-11.244,2.007-16.998
	c0-10.117-1.761-19.395-5.283-27.75C3219.024,611.801,3214.13,604.632,3207.864,598.631L3207.864,598.631z M3205.059,676.005
	c-2.232,6.636-5.386,12.247-9.4,16.876c-4.034,4.607-8.867,8.109-14.438,10.567c-5.571,2.396-11.735,3.604-18.452,3.604
	c-8.438,0-15.831-1.68-22.2-4.997c-6.39-3.4-11.674-8.008-15.912-13.885c-4.261-5.878-7.435-12.842-9.564-20.91
	c-2.13-8.008-3.174-16.671-3.174-25.97c0-8.438,1.126-15.953,3.358-22.568c2.233-6.615,5.386-12.206,9.421-16.753
	c4.014-4.526,8.848-8.049,14.418-10.404c5.571-2.396,11.715-3.604,18.452-3.604c8.438,0,15.79,1.638,22.159,4.956
	c6.349,3.317,11.633,7.885,15.852,13.722c4.28,5.878,7.455,12.8,9.626,20.767c2.15,8.008,3.236,16.65,3.236,26.011
	c0,8.376-1.147,15.953-3.379,22.589L3205.059,676.005z"/>
<path fill="#FFFFFF" d="M3343.094,703.529c-6.021,0.594-12.575,0.922-19.743,0.922v-57.078c4.055,0,8.294,0.164,12.739,0.513
	c4.424,0.369,8.499,0.717,12.288,1.167c4.383,0.471,8.643,0.963,12.819,1.516l2.826-13.21c-3.154,0.471-6.779,0.922-10.916,1.29
	c-3.502,0.287-7.781,0.594-12.82,0.922c-5.037,0.287-10.67,0.471-16.916,0.512v-49.684c2.232-0.123,4.444-0.246,6.615-0.369
	c1.885-0.123,3.851-0.205,5.878-0.328c2.028-0.082,3.789-0.123,5.243-0.123c4.321,0,8.11,0.164,11.428,0.472
	c3.318,0.368,6.124,0.676,8.397,1.044c2.683,0.43,5.018,0.922,7.045,1.475l4.424-12.083c-1.556,0.287-4.567,0.512-8.991,0.717
	c-4.424,0.164-9.769,0.287-16.015,0.41c-6.246,0.082-13.106,0.164-20.603,0.205c-7.496,0.082-15.013,0.123-22.61,0.123v0.369
	c0.348,1.29,0.696,2.847,1.044,4.71s0.613,4.239,0.859,7.045c0.246,2.847,0.431,6.164,0.554,10.035
	c0.123,3.85,0.164,8.314,0.164,13.517v59.208c0,5.161-0.041,9.688-0.164,13.518c-0.144,3.871-0.328,7.168-0.554,9.953
	c-0.225,2.784-0.512,5.119-0.859,7.004c-0.348,1.925-0.696,3.481-1.044,4.751v0.368h39.301c0.594,0,1.597,0,2.97,0.041
	s2.949,0.082,4.69,0.082c1.761,0.041,3.645,0.082,5.591,0.082c1.966,0.082,3.85,0.082,5.652,0.164
	c1.781,0.082,3.399,0.123,4.854,0.164c1.435,0.082,2.54,0.164,3.256,0.205l2.643-14.725c-4.301,1.126-9.052,2.149-14.275,2.99
	C3354.358,702.24,3349.095,702.916,3343.094,703.529L3343.094,703.529z"/>
<path fill="#FFFFFF" d="M3445.002,654.111c-3.707-4.198-7.7-8.191-12.022-12.083c-4.301-3.912-8.294-7.803-12.001-11.674
	c-3.727-3.871-6.779-7.844-9.236-11.796s-3.686-8.11-3.686-12.513c0-2.725,0.389-5.202,1.188-7.435
	c0.799-2.231,1.967-4.198,3.502-5.796c1.536-1.679,3.482-2.929,5.775-3.85c2.313-0.923,4.936-1.353,7.926-1.353
	c3.338,0,6.227,0.512,8.704,1.517c2.437,1.044,4.526,2.313,6.267,3.87c1.742,1.558,3.134,3.195,4.179,4.956
	c1.064,1.762,1.843,3.359,2.313,4.751h2.028l0.614-17.039c-0.963-0.43-2.191-0.963-3.728-1.638
	c-1.495-0.676-3.276-1.311-5.325-2.007c-2.047-0.696-4.342-1.249-6.86-1.72c-2.58-0.472-5.345-0.718-8.397-0.718
	c-4.115,0-8.109,0.718-12.001,2.15c-3.871,1.475-7.352,3.564-10.403,6.287c-3.072,2.724-5.551,6.042-7.394,9.871
	c-1.843,3.85-2.765,8.15-2.765,12.964c0,4.567,0.695,8.724,2.108,12.513c1.372,3.81,3.236,7.312,5.489,10.65
	c2.273,3.318,4.854,6.431,7.762,9.318c2.889,2.929,5.816,5.755,8.868,8.52s6.001,5.53,8.868,8.233
	c2.908,2.724,5.488,5.55,7.74,8.479c2.273,2.888,4.116,5.96,5.51,9.196c1.393,3.235,2.108,6.799,2.108,10.608
	c0,2.725-0.45,5.243-1.393,7.558c-0.942,2.313-2.294,4.32-4.035,5.96c-1.782,1.679-3.871,2.97-6.349,3.912
	c-2.459,0.922-5.243,1.393-8.336,1.393c-3.379,0-6.513-0.553-9.358-1.761s-5.386-2.765-7.598-4.71
	c-2.191-2.007-4.056-4.28-5.571-6.84c-1.536-2.602-2.621-5.284-3.277-8.151h-2.294l-2.089,20.111
	c1.352,0.922,3.052,1.925,5.161,2.99c2.108,1.064,4.444,2.13,7.106,3.03c2.621,0.963,5.51,1.761,8.622,2.396
	c3.134,0.594,6.41,0.922,9.893,0.922c6.185,0,11.51-0.963,15.995-2.929c4.506-2.008,8.15-4.567,10.998-7.681
	c2.867-3.194,4.977-6.758,6.349-10.711c1.353-3.994,2.068-7.926,2.068-11.878c0-5.284-1.249-10.199-3.707-14.807
	c-2.54-4.506-5.612-8.889-9.318-13.066L3445.002,654.111z"/>
<path fill="#FFFFFF" d="M3575.95,581.243c-0.717,0.041-1.843,0.082-3.297,0.164c-1.435,0.082-3.052,0.123-4.854,0.205
	c-1.802,0.041-3.686,0.082-5.632,0.123s-3.83,0.082-5.591,0.082c-1.761,0.041-3.318,0.082-4.689,0.123
	c-1.353,0-2.355,0.041-2.949,0.041h-51.979c-0.613,0-1.576-0.041-2.949-0.041c-1.371-0.041-2.948-0.082-4.689-0.123
	c-1.782,0-3.645-0.041-5.591-0.082c-2.007-0.041-3.871-0.082-5.632-0.123c-1.803-0.082-3.42-0.123-4.875-0.205
	c-1.453-0.082-2.56-0.123-3.276-0.164l-2.643,14.726c3.851-1.085,8.151-2.089,13.025-2.99c4.178-0.717,9.155-1.393,14.93-2.048
	s12.228-0.963,19.374-0.963v86.876c0,5.161-0.082,9.687-0.184,13.517c-0.123,3.871-0.308,7.168-0.554,9.953
	c-0.246,2.806-0.491,5.12-0.799,7.004c-0.328,1.925-0.635,3.482-1.024,4.751v0.369h21.771v-0.369
	c-0.389-1.29-0.696-2.847-1.044-4.751c-0.348-1.884-0.614-4.198-0.84-7.004c-0.205-2.806-0.389-6.083-0.512-9.953
	c-0.164-3.85-0.246-8.355-0.246-13.517v-86.876c7.168,0,13.618,0.328,19.373,0.963c5.756,0.635,10.732,1.311,14.931,2.048
	c4.833,0.922,9.216,1.925,13.106,2.99L3575.95,581.243L3575.95,581.243z"/>
<path fill="#FFFFFF" d="M3697.623,704.635c-1.127-1.966-2.273-4.157-3.523-6.636c-1.249-2.438-2.458-4.956-3.584-7.599
	l-49.418-111.206h-7.27l-52.164,115.671c-1.945,4.444-3.727,8.11-5.345,11.039c-1.659,2.97-3.011,4.997-4.075,6.164v0.369h18.533
	v-0.369c-0.143-0.205-0.266-0.553-0.369-1.044c-0.123-0.512-0.205-1.208-0.205-1.966c0-2.765,0.513-5.448,1.536-8.11
	c1.065-2.642,2.028-5.12,2.929-7.352l10.466-24.044c3.604-0.123,7.598-0.164,12.083-0.164c4.465,0,9.072,0,13.865,0
	c6.554,0,12.636,0,18.309,0c5.632,0,10.158,0.041,13.537,0.164l11.018,24.76c1.476,3.4,2.438,6.246,2.971,8.521
	c0.533,2.273,0.758,4.361,0.758,6.245c0,0.472-0.02,1.044-0.061,1.639c-0.082,0.594-0.185,1.044-0.287,1.352v0.369h24.903v-0.369
	c-0.307-0.369-0.86-1.208-1.7-2.56C3699.649,708.198,3698.707,706.56,3697.623,704.635L3697.623,704.635z M3650.273,661.32
	c-3.256,0.041-6.676,0.082-10.24,0.123c-3.543,0.041-7.168,0.041-10.854,0.082c-3.728,0.041-7.312,0.041-10.834,0.041h-9.811
	l25.108-58.122l25.58,57.754C3656.52,661.28,3653.549,661.321,3650.273,661.32L3650.273,661.32z"/>
<path fill="#FFFFFF" d="M3805.49,594.884c-5.979-4.997-12.964-8.562-20.91-10.752c-7.945-2.15-16.322-3.277-25.107-3.277
	c-3.256,0-6.779,0.082-10.527,0.205s-7.311,0.246-10.752,0.369c-3.481,0.123-6.533,0.246-9.257,0.369
	c-2.703,0.123-4.628,0.205-5.774,0.205c-0.636,0-1.536-0.041-2.643-0.041c-1.085-0.041-2.13-0.082-3.154-0.164
	c-1.229-0.041-2.54-0.123-3.932-0.164v0.369c0.389,1.29,0.717,2.888,1.064,4.792c0.349,1.966,0.614,4.361,0.86,7.168
	c0.246,2.806,0.431,6.205,0.554,10.117c0.123,3.87,0.164,8.396,0.164,13.599v59.208c0,5.161-0.041,9.687-0.164,13.517
	c-0.144,3.871-0.328,7.168-0.554,9.953c-0.225,2.785-0.512,5.12-0.86,7.004c-0.348,1.925-0.676,3.482-1.064,4.751v0.369
	c1.7,0,4.096,0.082,7.168,0.205c3.052,0.164,6.328,0.328,9.789,0.512c3.461,0.185,6.902,0.369,10.342,0.513
	c3.42,0.164,6.35,0.205,8.766,0.205c6.799,0,13.394-0.513,19.763-1.639c6.368-1.085,12.37-2.806,17.961-5.202
	c5.612-2.313,10.711-5.365,15.38-9.031c4.648-3.687,8.643-8.09,11.96-13.23c3.358-5.12,5.938-11.08,7.782-17.838
	c1.863-6.717,2.784-14.275,2.784-22.712c0-11.756-1.761-21.688-5.284-29.757c-3.522-8.069-8.334-14.664-14.355-19.62
	L3805.49,594.884z M3804.241,668.796c-1.556,6.163-3.748,11.447-6.491,15.79c-2.744,4.342-5.961,7.926-9.646,10.67
	c-3.707,2.765-7.578,4.914-11.756,6.513c-4.137,1.556-8.438,2.642-12.924,3.236c-4.443,0.553-8.806,0.84-13.045,0.84
	c-1.024,0-2.314-0.041-3.83-0.082c-1.517-0.082-3.053-0.164-4.649-0.246s-3.072-0.205-4.506-0.369c-1.435-0.164-2.58-0.287-3.4-0.41
	c-0.287-3.727-0.471-8.355-0.655-13.926c-0.164-5.591-0.327-11.407-0.43-17.49c-0.061-6.083-0.164-12.001-0.225-17.756
	c-0.062-5.755-0.103-10.649-0.103-14.725c0-1.966,0.021-4.157,0.062-6.677c0.02-2.519,0.061-5.16,0.102-7.926
	c0.021-2.765,0.041-5.55,0.103-8.438c0.02-2.848,0.061-5.632,0.123-8.356c0.123-6.41,0.246-12.964,0.368-19.763
	c1.168-0.041,2.643-0.164,4.425-0.328c1.802-0.123,3.707-0.246,5.733-0.369c2.028-0.082,4.055-0.164,6.145-0.246
	c2.068-0.123,3.891-0.164,5.55-0.164c8.315,0,15.667,1.29,22.057,3.871c6.41,2.561,11.757,6.369,16.118,11.325
	c4.321,4.956,7.619,11.08,9.871,18.33c2.232,7.27,3.338,15.524,3.338,24.842c0.02,8.458-0.758,15.688-2.335,21.853L3804.241,668.796
	z"/>
<path fill="#FFFFFF" d="M3956.306,598.631c-6.268-5.96-13.66-10.609-22.263-13.927c-8.58-3.276-17.939-4.956-28.037-4.956
	c-6.758,0-13.045,0.882-18.902,2.602c-5.837,1.72-11.203,4.116-16.016,7.25c-4.813,3.072-9.072,6.758-12.819,10.957
	s-6.902,8.847-9.462,13.885c-2.602,4.997-4.567,10.363-5.878,15.913c-1.331,5.591-2.007,11.244-2.007,16.998
	c0,10.199,1.761,19.476,5.283,27.791c3.523,8.356,8.397,15.524,14.644,21.443c6.267,5.919,13.659,10.567,22.262,13.804
	s17.94,4.833,28.058,4.833c6.738,0,13.025-0.84,18.843-2.602c5.815-1.72,11.141-4.115,15.974-7.168
	c4.813-3.071,9.114-6.717,12.861-10.916c3.768-4.238,6.963-8.847,9.523-13.804c2.58-4.956,4.547-10.24,5.856-15.831
	c1.353-5.55,2.007-11.244,2.007-16.998c0-10.117-1.74-19.395-5.263-27.75C3967.427,611.8,3962.553,604.632,3956.306,598.631
	L3956.306,598.631z M3953.5,676.005c-2.254,6.636-5.407,12.247-9.441,16.876c-4.035,4.607-8.847,8.109-14.418,10.567
	c-5.571,2.396-11.735,3.604-18.473,3.604c-8.417,0-15.831-1.68-22.2-4.997c-6.369-3.4-11.653-8.008-15.913-13.885
	c-4.239-5.878-7.434-12.842-9.564-20.91c-2.108-8.008-3.174-16.671-3.174-25.97c0-8.438,1.126-15.953,3.359-22.568
	c2.232-6.615,5.386-12.206,9.44-16.753c4.015-4.526,8.827-8.049,14.397-10.404c5.591-2.396,11.734-3.604,18.492-3.604
	c8.397,0,15.791,1.638,22.118,4.956c6.369,3.317,11.634,7.885,15.893,13.722c4.239,5.878,7.455,12.8,9.585,20.767
	c2.149,8.008,3.236,16.65,3.236,26.011C3956.838,661.793,3955.711,669.37,3953.5,676.005L3953.5,676.005z"/>
<path fill="#FFFFFF" d="M4144.64,594.884c-6.001-4.997-12.983-8.562-20.931-10.752c-7.926-2.15-16.324-3.277-25.108-3.277
	c-3.256,0-6.779,0.082-10.527,0.205c-3.727,0.123-7.291,0.246-10.752,0.369c-3.481,0.123-6.532,0.246-9.235,0.369
	s-4.649,0.205-5.797,0.205c-0.635,0-1.516-0.041-2.621-0.041c-1.084-0.041-2.149-0.082-3.174-0.164
	c-1.208-0.041-2.519-0.123-3.912-0.164v0.369c0.369,1.29,0.717,2.888,1.044,4.792c0.349,1.966,0.614,4.361,0.882,7.168
	c0.225,2.806,0.409,6.205,0.531,10.117c0.123,3.87,0.164,8.396,0.164,13.599v59.208c0,5.161-0.041,9.687-0.164,13.517
	c-0.143,3.871-0.328,7.168-0.531,9.953c-0.267,2.807-0.532,5.12-0.882,7.004c-0.327,1.925-0.676,3.482-1.044,4.751v0.369
	c1.7,0,4.055,0.082,7.148,0.205c3.072,0.164,6.328,0.328,9.789,0.512c3.461,0.185,6.902,0.369,10.342,0.513
	c3.42,0.164,6.369,0.205,8.765,0.205c6.8,0,13.393-0.513,19.762-1.639c6.369-1.085,12.371-2.806,17.961-5.202
	c5.612-2.313,10.732-5.365,15.381-9.031c4.668-3.687,8.621-8.09,11.98-13.23c3.318-5.12,5.919-11.08,7.782-17.838
	c1.843-6.717,2.765-14.275,2.765-22.712c0-11.756-1.74-21.688-5.263-29.757c-3.604-8.151-8.335-14.664-14.356-19.62L4144.64,594.884
	z M4143.369,668.796c-1.576,6.163-3.748,11.447-6.492,15.79c-2.785,4.361-6,7.926-9.666,10.67
	c-3.687,2.765-7.578,4.914-11.735,6.513c-4.138,1.556-8.458,2.642-12.923,3.236c-4.484,0.553-8.827,0.84-13.066,0.84
	c-1.023,0-2.313-0.041-3.83-0.082c-1.494-0.082-3.052-0.164-4.627-0.246c-1.598-0.082-3.072-0.205-4.526-0.369
	s-2.56-0.287-3.399-0.41c-0.267-3.727-0.451-8.355-0.655-13.926c-0.185-5.591-0.328-11.407-0.41-17.49
	c-0.103-6.083-0.185-12.001-0.246-17.756s-0.082-10.649-0.082-14.725c0-1.966,0.021-4.157,0.041-6.677
	c0.021-2.519,0.082-5.16,0.103-7.926c0.02-2.765,0.061-5.55,0.082-8.438c0.02-2.848,0.102-5.632,0.143-8.356
	c0.123-6.41,0.266-12.964,0.369-19.763c1.167-0.041,2.621-0.164,4.424-0.328c1.782-0.123,3.707-0.246,5.734-0.369
	c2.048-0.082,4.055-0.164,6.144-0.246c2.068-0.123,3.892-0.164,5.55-0.164c8.315,0,15.668,1.29,22.056,3.871
	c6.41,2.561,11.776,6.369,16.119,11.325c4.342,4.956,7.619,11.08,9.871,18.33c2.231,7.27,3.358,15.524,3.358,24.842
	C4145.745,655.4,4144.967,662.631,4143.369,668.796L4143.369,668.796z"/>
<path fill="#FFFFFF" d="M4295.434,598.631c-6.287-5.96-13.682-10.609-22.282-13.927c-8.581-3.276-17.92-4.956-28.037-4.956
	c-6.758,0-13.046,0.882-18.903,2.602c-5.856,1.72-11.182,4.116-16.015,7.25c-4.813,3.072-9.093,6.758-12.841,10.957
	c-3.727,4.198-6.881,8.847-9.462,13.885c-2.56,4.997-4.547,10.363-5.837,15.913c-1.352,5.591-2.007,11.244-2.007,16.998
	c0,10.199,1.741,19.476,5.263,27.791c3.523,8.356,8.397,15.524,14.644,21.443c6.267,5.919,13.681,10.567,22.263,13.804
	c8.602,3.236,17.939,4.833,28.058,4.833c6.737,0,13.024-0.84,18.842-2.602c5.837-1.72,11.142-4.115,15.974-7.168
	c4.813-3.071,9.114-6.717,12.861-10.916c3.789-4.238,6.963-8.847,9.523-13.804c2.58-4.956,4.547-10.24,5.877-15.831
	c1.332-5.55,2.008-11.244,2.008-16.998c0-10.117-1.783-19.395-5.285-27.75C4306.554,611.8,4301.68,604.632,4295.434,598.631
	L4295.434,598.631z M4292.607,676.005c-2.232,6.636-5.387,12.247-9.421,16.876c-4.015,4.607-8.827,8.109-14.418,10.567
	c-5.571,2.396-11.735,3.604-18.474,3.604c-8.416,0-15.811-1.68-22.199-4.997c-6.369-3.4-11.653-8.008-15.914-13.885
	c-4.238-5.878-7.414-12.842-9.563-20.91c-2.13-8.008-3.153-16.671-3.153-25.97c0-8.438,1.125-15.953,3.338-22.568
	c2.252-6.595,5.386-12.206,9.44-16.753c4.035-4.526,8.847-8.049,14.418-10.404c5.571-2.396,11.715-3.604,18.474-3.604
	c8.416,0,15.789,1.638,22.139,4.956c6.35,3.317,11.611,7.885,15.872,13.722c4.239,5.878,7.435,12.8,9.604,20.767
	c2.131,8.008,3.215,16.65,3.215,26.011C4295.965,661.793,4294.859,669.37,4292.607,676.005L4292.607,676.005z"/>
<path fill="#FFFFFF" d="M4486.39,707.318c-1.249-1.126-2.54-2.519-3.912-4.157c-1.331-1.638-2.826-3.604-4.424-5.837l-31.929-44.831
	c3.523-1.556,6.717-3.563,9.545-5.878c2.867-2.313,5.304-4.997,7.332-8.09c2.047-2.99,3.604-6.41,4.73-10.117
	c1.105-3.727,1.659-7.762,1.659-12.165c0-5.55-1.004-10.567-3.03-14.949c-2.028-4.403-4.875-8.11-8.521-11.162
	c-3.625-2.99-7.905-5.325-12.86-6.881c-4.937-1.598-10.322-2.396-16.139-2.396c-6.268,0-11.407,0.328-15.441,0.881
	c-4.035,0.553-7.25,0.881-9.605,0.881c-1.516,0-2.99-0.041-4.402-0.082c-1.455,0-2.744-0.082-3.851-0.205
	c-1.353-0.122-2.621-0.245-3.851-0.368v0.368c0.349,1.29,0.717,2.848,1.065,4.71c0.328,1.885,0.595,4.239,0.84,7.046
	c0.246,2.847,0.431,6.163,0.554,10.034c0.123,3.851,0.184,8.315,0.184,13.518v59.208c0,5.161-0.061,9.687-0.184,13.517
	c-0.123,3.871-0.328,7.168-0.554,9.953s-0.513,5.12-0.84,7.004c-0.349,1.925-0.717,3.482-1.065,4.751v0.369h21.832v-0.369
	c-0.389-1.29-0.695-2.847-1.043-4.751c-0.349-1.884-0.614-4.197-0.819-7.004c-0.246-2.806-0.41-6.083-0.532-9.953
	c-0.184-3.85-0.246-8.355-0.246-13.517v-20.439c3.277,0.513,6.492,0.799,9.646,0.799c3.153,0,6.226-0.163,9.195-0.471l32.195,45.445
	c1.33,1.884,2.498,3.768,3.502,5.673c1.002,1.905,1.597,3.441,1.781,4.607h26.317v-0.368c-1.229-0.472-2.396-1.126-3.563-1.844
	c-1.127-0.799-2.314-1.72-3.564-2.929H4486.39z M4439.981,644.567c-3.543,2.683-7.804,4.403-12.739,5.161
	c-4.955,0.799-10.403,0.635-16.342-0.43v-60.232c1.043-0.369,2.334-0.676,3.912-1.004c1.311-0.246,2.97-0.471,4.914-0.676
	c1.926-0.246,4.199-0.328,6.82-0.328c4.116,0,7.721,0.717,10.813,2.15c3.072,1.434,5.652,3.44,7.701,6
	c2.027,2.561,3.563,5.715,4.588,9.4c1.043,3.728,1.556,7.844,1.556,12.37c0,6.554-0.983,12.124-2.99,16.712
	C4446.289,638.238,4443.545,641.884,4439.981,644.567L4439.981,644.567z"/>
<path fill="#FFFFFF" d="M4502.609,582.328c0.348,1.29,0.695,2.848,0.982,4.71c0.349,1.885,0.574,4.239,0.84,7.046
	c0.226,2.847,0.431,6.163,0.533,10.034c0.123,3.851,0.164,8.315,0.164,13.518v59.208c0,5.161-0.041,9.687-0.164,13.517
	c-0.123,3.871-0.328,7.168-0.533,9.953c-0.266,2.806-0.492,5.12-0.84,7.004c-0.287,1.925-0.635,3.482-0.982,4.751v0.369h21.75
	v-0.369c-0.369-1.29-0.695-2.847-1.044-4.751c-0.349-1.884-0.614-4.198-0.819-7.004c-0.225-2.806-0.389-6.083-0.531-9.953
	c-0.164-3.85-0.246-8.355-0.246-13.517v-59.208c0-5.202,0.082-9.688,0.246-13.518c0.164-3.871,0.328-7.209,0.531-10.034
	c0.205-2.807,0.472-5.161,0.819-7.046c0.348-1.884,0.676-3.44,1.044-4.71v-0.369h-21.75V582.328z"/>
<path fill="#FFFFFF" d="M4661.043,598.631c-6.246-5.96-13.66-10.609-22.242-13.927c-8.602-3.276-17.961-4.956-28.078-4.956
	c-6.717,0-13.024,0.882-18.883,2.602c-5.836,1.72-11.203,4.116-16.015,7.25c-4.813,3.072-9.073,6.758-12.819,10.957
	c-3.747,4.199-6.902,8.847-9.463,13.885c-2.601,4.997-4.547,10.363-5.877,15.913c-1.332,5.591-2.008,11.244-2.008,16.998
	c0,10.199,1.783,19.476,5.285,27.791c3.522,8.356,8.396,15.524,14.643,21.443c6.268,5.919,13.66,10.567,22.262,13.804
	c8.603,3.236,17.94,4.833,28.059,4.833c6.738,0,13.025-0.84,18.842-2.602c5.816-1.72,11.141-4.115,15.975-7.168
	c4.791-3.071,9.092-6.717,12.86-10.916c3.769-4.238,6.942-8.847,9.522-13.804s4.547-10.24,5.857-15.831
	c1.352-5.55,2.007-11.244,2.007-16.998c0-10.117-1.741-19.395-5.263-27.75C4672.164,611.8,4667.31,604.632,4661.043,598.631
	L4661.043,598.631z M4658.217,676.005c-2.232,6.636-5.408,12.247-9.422,16.876c-4.035,4.607-8.847,8.109-14.418,10.567
	c-5.57,2.396-11.734,3.604-18.473,3.604c-8.417,0-15.831-1.68-22.2-4.997c-6.39-3.4-11.653-8.008-15.913-13.885
	c-4.238-5.878-7.434-12.842-9.564-20.91c-2.108-8.008-3.174-16.671-3.174-25.97c0-8.438,1.127-15.953,3.379-22.568
	c2.213-6.595,5.367-12.206,9.422-16.753c4.014-4.526,8.826-8.049,14.396-10.404c5.591-2.396,11.756-3.604,18.473-3.604
	c8.418,0,15.812,1.638,22.16,4.956c6.348,3.317,11.611,7.885,15.871,13.722c4.239,5.878,7.455,12.8,9.605,20.767
	c2.13,8.008,3.215,16.65,3.215,26.011c0,8.376-1.105,15.953-3.359,22.589L4658.217,676.005z"/>
<path fill="#FFFFFF" d="M4849.397,594.884c-6.001-4.997-12.983-8.562-20.91-10.752c-7.967-2.15-16.343-3.277-25.129-3.277
	c-3.256,0-6.778,0.082-10.526,0.205c-3.728,0.123-7.312,0.246-10.752,0.369c-3.461,0.123-6.533,0.246-9.258,0.369
	c-2.703,0.123-4.607,0.205-5.774,0.205c-0.635,0-1.517-0.041-2.621-0.041c-1.106-0.041-2.149-0.082-3.174-0.164
	c-1.229-0.041-2.519-0.123-3.912-0.164v0.369c0.369,1.29,0.696,2.888,1.044,4.792c0.348,1.966,0.613,4.361,0.859,7.168
	c0.246,2.806,0.431,6.205,0.554,10.117c0.123,3.87,0.164,8.396,0.164,13.599v59.208c0,5.161-0.041,9.687-0.164,13.517
	c-0.123,3.871-0.328,7.168-0.554,9.953c-0.225,2.785-0.512,5.12-0.859,7.004c-0.348,1.925-0.676,3.482-1.044,4.751v0.369
	c1.7,0,4.076,0.082,7.168,0.205c3.03,0.164,6.308,0.328,9.789,0.512c3.461,0.205,6.881,0.369,10.321,0.513
	c3.42,0.164,6.35,0.205,8.766,0.205c6.799,0,13.395-0.513,19.764-1.639c6.39-1.085,12.369-2.806,17.961-5.202
	c5.611-2.313,10.731-5.365,15.379-9.031c4.67-3.687,8.644-8.09,11.961-13.23c3.358-5.12,5.938-11.08,7.803-17.838
	c1.843-6.717,2.766-14.275,2.766-22.712c0-11.756-1.762-21.688-5.264-29.757c-3.584-8.151-8.355-14.664-14.355-19.62
	L4849.397,594.884z M4848.127,668.796c-1.556,6.163-3.727,11.447-6.492,15.79c-2.765,4.361-5.959,7.926-9.646,10.67
	c-3.687,2.743-7.578,4.914-11.735,6.513c-4.137,1.556-8.457,2.642-12.942,3.236c-4.444,0.553-8.786,0.84-13.046,0.84
	c-1.023,0-2.314-0.041-3.83-0.082c-1.516-0.082-3.052-0.164-4.628-0.246c-1.597-0.082-3.092-0.205-4.526-0.369
	c-1.434-0.164-2.58-0.287-3.399-0.41c-0.287-3.727-0.472-8.355-0.655-13.926c-0.164-5.591-0.328-11.407-0.43-17.49
	c-0.061-6.083-0.164-12.001-0.205-17.756c-0.082-5.755-0.102-10.649-0.102-14.725c0-1.966,0-4.157,0.041-6.677
	c0.041-2.519,0.061-5.16,0.102-7.926c0.02-2.765,0.061-5.55,0.102-8.438c0.021-2.848,0.062-5.632,0.123-8.356
	c0.123-6.41,0.246-12.964,0.369-19.763c1.168-0.041,2.643-0.164,4.424-0.328c1.803-0.123,3.707-0.246,5.734-0.369
	c2.027-0.082,4.055-0.164,6.145-0.246c2.067-0.123,3.891-0.164,5.549-0.164c8.315,0,15.668,1.29,22.058,3.871
	c6.41,2.561,11.756,6.369,16.118,11.325c4.342,4.956,7.619,11.08,9.871,18.33c2.232,7.27,3.359,15.524,3.359,24.842
	c0.02,8.458-0.778,15.688-2.355,21.853L4848.127,668.796z"/>
<path fill="#FFFFFF" d="M4929.289,703.529c-6,0.594-12.574,0.922-19.763,0.922v-57.078c4.076,0,8.335,0.164,12.759,0.513
	c4.424,0.348,8.52,0.717,12.288,1.167c4.383,0.471,8.644,0.963,12.841,1.516l2.807-13.21c-3.133,0.471-6.799,0.922-10.896,1.29
	c-3.522,0.287-7.804,0.594-12.841,0.922c-5.038,0.287-10.67,0.471-16.938,0.512v-49.684c2.273-0.123,4.485-0.246,6.656-0.369
	c1.884-0.123,3.85-0.205,5.878-0.328c2.028-0.082,3.769-0.123,5.243-0.123c4.301,0,8.109,0.164,11.407,0.472
	c3.297,0.368,6.103,0.676,8.397,1.044c2.683,0.43,4.996,0.922,7.024,1.475l4.465-12.083c-1.577,0.287-4.588,0.512-8.991,0.717
	c-4.424,0.164-9.789,0.287-16.016,0.41c-6.267,0.082-13.147,0.164-20.623,0.205c-7.475,0.082-15.012,0.123-22.609,0.123v0.369
	c0.369,1.29,0.695,2.847,1.044,4.71s0.614,4.239,0.86,7.045c0.266,2.847,0.43,6.164,0.553,10.035
	c0.102,3.85,0.184,8.314,0.184,13.517v59.208c0,5.161-0.082,9.688-0.184,13.518c-0.123,3.871-0.307,7.168-0.553,9.953
	c-0.246,2.806-0.513,5.119-0.86,7.004c-0.349,1.925-0.676,3.481-1.044,4.751v0.368h39.322c0.594,0,1.576,0,2.949,0.041
	c1.371,0.041,2.949,0.082,4.689,0.082c1.741,0.041,3.604,0.082,5.591,0.082c1.966,0.082,3.851,0.082,5.612,0.164
	c1.801,0.082,3.42,0.123,4.873,0.164c1.455,0.082,2.541,0.164,3.277,0.205l2.621-14.725c-4.301,1.126-9.052,2.149-14.275,2.99
	c-4.506,0.818-9.748,1.494-15.748,2.108L4929.289,703.529z"/>
<path fill="#FFFFFF" d="M5036.83,582.328c0.349,1.29,0.696,2.848,1.045,4.71c0.348,1.863,0.594,4.239,0.859,7.046
	c0.246,2.847,0.43,6.163,0.553,10.034c0.103,3.851,0.185,8.315,0.185,13.518v75.96c0,6.431-0.185,12.37-0.554,17.797
	c-0.348,5.448-1.207,10.486-2.498,15.196c-1.291,4.689-3.174,9.113-5.633,13.229c-2.457,4.116-5.774,8.09-9.953,11.919l1.639,2.273
	c4.833-3.523,9.318-7.127,13.414-10.752s7.639-7.763,10.65-12.432c2.99-4.607,5.345-9.952,7.004-15.913
	c1.679-6.042,2.498-13.128,2.498-21.319v-75.96c0-5.202,0.082-9.688,0.185-13.518c0.144-3.871,0.308-7.209,0.554-10.035
	c0.225-2.806,0.512-5.16,0.881-7.045c0.348-1.884,0.654-3.44,1.043-4.71v-0.369h-21.832v0.369L5036.83,582.328z"/>
<path fill="#FFFFFF" d="M5194.547,704.635c-1.106-1.966-2.254-4.157-3.523-6.636c-1.249-2.438-2.438-4.956-3.584-7.599
	l-49.418-111.206h-7.27l-52.143,115.671c-1.945,4.444-3.727,8.11-5.366,11.039c-1.659,2.97-2.99,4.997-4.076,6.164v0.369h18.534
	v-0.369c-0.123-0.205-0.225-0.553-0.369-1.044c-0.123-0.512-0.164-1.208-0.164-1.966c0-2.765,0.492-5.448,1.516-8.11
	c1.045-2.642,2.008-5.12,2.908-7.352l10.486-24.044c3.604-0.123,7.598-0.164,12.063-0.164s9.074,0,13.885,0
	c6.555,0,12.637,0,18.289,0c5.653,0,10.18,0.041,13.578,0.164l10.998,24.76c1.455,3.4,2.418,6.246,2.949,8.521
	c0.533,2.273,0.758,4.361,0.758,6.245c0,0.472,0,1.044-0.061,1.639c-0.082,0.594-0.164,1.044-0.287,1.352v0.369h24.924v-0.369
	c-0.287-0.369-0.881-1.208-1.721-2.56c-0.881-1.312-1.842-2.949-2.908-4.874H5194.547z M5147.196,661.32
	c-3.256,0.041-6.676,0.082-10.22,0.123c-3.564,0.041-7.188,0.041-10.875,0.082c-3.728,0.041-7.312,0.041-10.813,0.041h-9.83
	l25.129-58.122l25.58,57.754C5153.464,661.28,5150.475,661.321,5147.196,661.32L5147.196,661.32z"/>
<path fill="#FFFFFF" d="M5306.551,582.328c0.349,1.29,0.696,2.848,1.024,4.71c0.369,1.885,0.614,4.239,0.881,7.046
	c0.246,2.847,0.431,6.163,0.513,10.034c0.143,3.851,0.205,8.315,0.205,13.518v64.041l-93.717-99.717h-5.815v0.368
	c0.349,1.29,0.696,2.848,1.044,4.711c0.348,1.862,0.613,4.238,0.859,7.045c0.246,2.847,0.431,6.164,0.554,10.034
	c0.123,3.851,0.185,8.315,0.185,13.518v59.208c0,5.161-0.062,9.687-0.185,13.517c-0.144,3.871-0.328,7.168-0.554,9.953
	c-0.225,2.785-0.512,5.12-0.859,7.004c-0.348,1.925-0.695,3.482-1.044,4.751v0.369h16.2v-0.369c-0.389-1.29-0.695-2.847-1.004-4.751
	c-0.307-1.884-0.573-4.198-0.84-7.004c-0.246-2.806-0.43-6.083-0.532-9.953c-0.123-3.85-0.185-8.355-0.185-13.517v-62.239
	l93.717,99.635h3.194v-96.604c0-5.202,0.062-9.688,0.185-13.518c0.102-3.87,0.307-7.209,0.531-10.034
	c0.246-2.807,0.513-5.161,0.84-7.045c0.287-1.885,0.614-3.441,0.983-4.711v-0.368h-16.179v0.368H5306.551z"/>
<path fill="#FFFFFF" d="M5386.998,703.529c-6.021,0.594-12.576,0.922-19.764,0.922v-57.078c4.076,0,8.314,0.164,12.738,0.513
	c4.444,0.369,8.521,0.717,12.309,1.167c4.361,0.471,8.643,0.963,12.82,1.516l2.826-13.21c-3.154,0.471-6.799,0.922-10.916,1.29
	c-3.523,0.287-7.783,0.594-12.842,0.922c-5.018,0.287-10.67,0.471-16.916,0.512v-49.684c2.254-0.123,4.465-0.246,6.637-0.369
	c1.884-0.123,3.85-0.205,5.878-0.328c2.028-0.082,3.789-0.123,5.243-0.123c4.301,0,8.109,0.164,11.428,0.472
	c3.297,0.368,6.125,0.676,8.397,1.044c2.662,0.43,4.997,0.922,7.024,1.475l4.444-12.083c-1.556,0.287-4.567,0.512-8.991,0.717
	c-4.424,0.164-9.77,0.287-16.016,0.41c-6.246,0.082-13.106,0.164-20.603,0.205c-7.496,0.082-15.013,0.123-22.61,0.123v0.369
	c0.349,1.29,0.696,2.847,1.045,4.71c0.348,1.863,0.613,4.239,0.859,7.045c0.246,2.847,0.43,6.164,0.553,10.035
	c0.103,3.85,0.164,8.314,0.164,13.517v59.208c0,5.161-0.061,9.688-0.164,13.518c-0.143,3.871-0.328,7.168-0.553,9.953
	c-0.225,2.784-0.512,5.119-0.859,7.004c-0.349,1.925-0.696,3.481-1.045,4.751v0.368h39.301c0.595,0,1.598,0,2.971,0.041
	s2.93,0.082,4.689,0.082c1.762,0.041,3.625,0.082,5.592,0.082c1.965,0.082,3.85,0.082,5.631,0.164
	c1.782,0.082,3.4,0.123,4.875,0.164c1.434,0.082,2.519,0.164,3.256,0.205l2.642-14.725c-4.301,1.126-9.052,2.149-14.274,2.99
	C5398.241,702.24,5392.998,702.916,5386.998,703.529L5386.998,703.529z"/>
<path fill="#FFFFFF" d="M5440.225,582.328c0.348,1.29,0.695,2.848,0.982,4.71c0.349,1.885,0.574,4.239,0.84,7.046
	c0.226,2.847,0.431,6.163,0.533,10.034c0.123,3.851,0.164,8.315,0.164,13.518v59.208c0,5.161-0.041,9.687-0.164,13.517
	c-0.123,3.871-0.328,7.168-0.533,9.953c-0.266,2.806-0.492,5.12-0.84,7.004c-0.287,1.925-0.635,3.482-0.982,4.751v0.369h21.75
	v-0.369c-0.369-1.29-0.695-2.847-1.044-4.751c-0.349-1.884-0.614-4.198-0.819-7.004c-0.225-2.806-0.389-6.083-0.531-9.953
	c-0.164-3.85-0.246-8.355-0.246-13.517v-59.208c0-5.202,0.082-9.688,0.246-13.518c0.164-3.871,0.328-7.209,0.531-10.034
	c0.205-2.807,0.472-5.161,0.819-7.046c0.348-1.884,0.676-3.44,1.044-4.71v-0.369h-21.75V582.328z"/>
<path fill="#FFFFFF" d="M5583.482,707.318c-1.249-1.126-2.54-2.519-3.891-4.157c-1.352-1.638-2.848-3.604-4.424-5.837
	l-31.929-44.831c3.502-1.556,6.696-3.563,9.544-5.878c2.867-2.313,5.305-4.997,7.332-8.09c2.027-2.99,3.604-6.41,4.71-10.117
	c1.106-3.727,1.679-7.762,1.679-12.165c0-5.55-1.004-10.567-3.051-14.949c-2.028-4.403-4.854-8.11-8.5-11.162
	c-3.645-2.99-7.926-5.325-12.86-6.881c-4.956-1.598-10.342-2.396-16.159-2.396c-6.246,0-11.407,0.328-15.421,0.881
	c-4.035,0.553-7.25,0.881-9.604,0.881c-1.517,0-2.99-0.041-4.424-0.082c-1.435,0-2.725-0.082-3.851-0.205
	c-1.331-0.122-2.601-0.245-3.83-0.368v0.368c0.349,1.29,0.696,2.848,1.044,4.71c0.348,1.863,0.613,4.239,0.859,7.046
	c0.246,2.847,0.431,6.163,0.554,10.034c0.123,3.851,0.164,8.315,0.164,13.518v59.208c0,5.161-0.041,9.687-0.164,13.517
	c-0.144,3.871-0.328,7.168-0.554,9.953c-0.225,2.785-0.512,5.12-0.859,7.004c-0.348,1.925-0.695,3.482-1.044,4.751v0.369h21.832
	v-0.369c-0.39-1.29-0.717-2.847-1.044-4.751c-0.348-1.884-0.613-4.197-0.84-7.004c-0.227-2.806-0.389-6.083-0.532-9.953
	c-0.164-3.85-0.246-8.355-0.246-13.517v-20.439c3.297,0.513,6.492,0.799,9.667,0.799s6.227-0.163,9.175-0.471l32.215,45.445
	c1.331,1.884,2.499,3.768,3.502,5.673s1.597,3.441,1.782,4.607h26.296v-0.368c-1.229-0.472-2.396-1.126-3.563-1.844
	C5585.94,709.448,5584.732,708.527,5583.482,707.318L5583.482,707.318z M5537.096,644.567c-3.564,2.683-7.823,4.403-12.759,5.161
	c-4.937,0.799-10.383,0.635-16.343-0.43v-60.232c1.044-0.369,2.335-0.676,3.932-1.004c1.291-0.246,2.971-0.471,4.896-0.676
	c1.946-0.246,4.198-0.328,6.819-0.328c4.138,0,7.742,0.717,10.834,2.15c3.072,1.434,5.633,3.44,7.681,6
	c2.028,2.561,3.563,5.715,4.608,9.4c1.043,3.728,1.556,7.844,1.556,12.37c0,6.554-1.004,12.124-2.99,16.712
	C5543.404,638.238,5540.639,641.884,5537.096,644.567L5537.096,644.567z"/>
<path fill="#FFFFFF" d="M5708.717,598.631c-6.246-5.96-13.66-10.609-22.24-13.927c-8.582-3.276-17.94-4.956-28.059-4.956
	c-6.738,0-13.025,0.882-18.902,2.602c-5.838,1.72-11.183,4.116-15.996,7.25c-4.813,3.072-9.092,6.758-12.84,10.957
	s-6.881,8.847-9.463,13.885c-2.58,4.997-4.547,10.363-5.856,15.913c-1.331,5.591-2.007,11.244-2.007,16.998
	c0,10.199,1.762,19.476,5.284,27.791c3.502,8.356,8.397,15.524,14.644,21.443s13.66,10.567,22.24,13.804
	c8.603,3.236,17.961,4.833,28.078,4.833c6.717,0,13.025-0.84,18.821-2.602c5.837-1.72,11.162-4.115,15.995-7.168
	c4.792-3.071,9.093-6.717,12.861-10.916c3.768-4.238,6.942-8.847,9.522-13.804s4.526-10.24,5.856-15.831
	c1.332-5.55,2.008-11.244,2.008-16.998c0-10.117-1.762-19.395-5.264-27.75C5719.857,611.8,5715.004,604.632,5708.717,598.631
	L5708.717,598.631z M5705.912,676.005c-2.232,6.636-5.408,12.247-9.422,16.876c-4.035,4.607-8.847,8.109-14.418,10.567
	c-5.57,2.396-11.756,3.604-18.473,3.604c-8.417,0-15.831-1.68-22.2-4.997c-6.39-3.4-11.674-8.008-15.913-13.885
	c-4.239-5.878-7.434-12.842-9.564-20.91c-2.129-8.008-3.174-16.671-3.174-25.97c0-8.438,1.127-15.953,3.359-22.568
	s5.387-12.206,9.421-16.753c4.035-4.526,8.847-8.049,14.418-10.404c5.571-2.396,11.735-3.604,18.474-3.604
	c8.416,0,15.789,1.638,22.139,4.956c6.369,3.317,11.633,7.885,15.872,13.722c4.26,5.878,7.455,12.8,9.604,20.767
	c2.15,8.008,3.236,16.65,3.236,26.011C5709.271,661.793,5708.166,669.37,5705.912,676.005L5705.912,676.005z"/>
<path fill="#FFFFFF" d="M2802.258,102.4h10.24v819.2h-10.24V102.4L2802.258,102.4z"/>
</svg>
